solid OpenSCAD_Model
  facet normal -0 0 -1
    outer loop
      vertex -11.8 0 0
      vertex -11.5421 2.45336 0
      vertex -11.5421 -2.45336 0
    endloop
  endfacet
  facet normal 0 -0 -1
    outer loop
      vertex -11.5421 -2.45336 0
      vertex -11.5421 2.45336 0
      vertex -10.7798 4.79949 0
    endloop
  endfacet
  facet normal 0 0 -1
    outer loop
      vertex -11.5421 -2.45336 0
      vertex -10.7798 4.79949 0
      vertex -9.5464 6.93587 0
    endloop
  endfacet
  facet normal 0 0 -1
    outer loop
      vertex -11.5421 -2.45336 0
      vertex -9.5464 6.93587 0
      vertex -7.89574 8.76911 0
    endloop
  endfacet
  facet normal 0 0 -1
    outer loop
      vertex -11.5421 -2.45336 0
      vertex -7.89574 8.76911 0
      vertex -5.9 10.2191 0
    endloop
  endfacet
  facet normal 0 0 -1
    outer loop
      vertex -11.5421 -2.45336 0
      vertex -5.9 10.2191 0
      vertex -3.6464 11.2225 0
    endloop
  endfacet
  facet normal 0 0 -1
    outer loop
      vertex -11.5421 -2.45336 0
      vertex -3.6464 11.2225 0
      vertex -1.23344 11.7354 0
    endloop
  endfacet
  facet normal 0 0 -1
    outer loop
      vertex -3.65 6.32198 0
      vertex -1.23344 11.7354 0
      vertex 1.23344 11.7354 0
    endloop
  endfacet
  facet normal 0 0 -1
    outer loop
      vertex -0.763058 7.26001 0
      vertex 1.23344 11.7354 0
      vertex 3.6464 11.2225 0
    endloop
  endfacet
  facet normal 0 0 -1
    outer loop
      vertex 0.763058 7.26001 0
      vertex 3.6464 11.2225 0
      vertex 5.9 10.2191 0
    endloop
  endfacet
  facet normal 0 0 -1
    outer loop
      vertex 3.65 6.32198 0
      vertex 5.9 10.2191 0
      vertex 7.89574 8.76911 0
    endloop
  endfacet
  facet normal 0 0 -1
    outer loop
      vertex 4.88465 5.42496 0
      vertex 7.89574 8.76911 0
      vertex 9.5464 6.93587 0
    endloop
  endfacet
  facet normal 0 0 -1
    outer loop
      vertex 5.90582 4.29083 0
      vertex 9.5464 6.93587 0
      vertex 10.7798 4.79949 0
    endloop
  endfacet
  facet normal -0 0 -1
    outer loop
      vertex 6.66888 2.96918 0
      vertex 10.7798 4.79949 0
      vertex 11.5421 2.45336 0
    endloop
  endfacet
  facet normal -0 0 -1
    outer loop
      vertex 7.3 0 0
      vertex 11.5421 2.45336 0
      vertex 11.8 0 0
    endloop
  endfacet
  facet normal -0 0 -1
    outer loop
      vertex 7.14048 -1.51775 0
      vertex 11.8 0 0
      vertex 11.5421 -2.45336 0
    endloop
  endfacet
  facet normal -0 0 -1
    outer loop
      vertex 6.66888 -2.96918 0
      vertex 11.5421 -2.45336 0
      vertex 10.7798 -4.79949 0
    endloop
  endfacet
  facet normal -0 0 -1
    outer loop
      vertex 4.88465 -5.42496 0
      vertex 10.7798 -4.79949 0
      vertex 9.5464 -6.93587 0
    endloop
  endfacet
  facet normal 0 0 -1
    outer loop
      vertex 3.65 -6.32198 0
      vertex 9.5464 -6.93587 0
      vertex 7.89574 -8.76911 0
    endloop
  endfacet
  facet normal 0 0 -1
    outer loop
      vertex 0.763058 -7.26001 0
      vertex 7.89574 -8.76911 0
      vertex 5.9 -10.2191 0
    endloop
  endfacet
  facet normal 0 0 -1
    outer loop
      vertex -2.25582 -6.94271 0
      vertex 5.9 -10.2191 0
      vertex 3.6464 -11.2225 0
    endloop
  endfacet
  facet normal 0 0 -1
    outer loop
      vertex -11.5421 -2.45336 0
      vertex 3.6464 -11.2225 0
      vertex 1.23344 -11.7354 0
    endloop
  endfacet
  facet normal 0 0 -1
    outer loop
      vertex -11.5421 -2.45336 0
      vertex 1.23344 -11.7354 0
      vertex -1.23344 -11.7354 0
    endloop
  endfacet
  facet normal 0 0 -1
    outer loop
      vertex -11.5421 -2.45336 0
      vertex -1.23344 -11.7354 0
      vertex -3.6464 -11.2225 0
    endloop
  endfacet
  facet normal 0 0 -1
    outer loop
      vertex -11.5421 -2.45336 0
      vertex -3.6464 -11.2225 0
      vertex -5.9 -10.2191 0
    endloop
  endfacet
  facet normal 0 0 -1
    outer loop
      vertex -11.5421 -2.45336 0
      vertex -5.9 -10.2191 0
      vertex -7.89574 -8.76911 0
    endloop
  endfacet
  facet normal 0 0 -1
    outer loop
      vertex -11.5421 -2.45336 0
      vertex -7.89574 -8.76911 0
      vertex -9.5464 -6.93587 0
    endloop
  endfacet
  facet normal 0 0 -1
    outer loop
      vertex -11.5421 -2.45336 0
      vertex -9.5464 -6.93587 0
      vertex -10.7798 -4.79949 0
    endloop
  endfacet
  facet normal 0 0 -1
    outer loop
      vertex -7.14048 -1.51775 0
      vertex -11.5421 -2.45336 0
      vertex -7.3 0 0
    endloop
  endfacet
  facet normal 0 0 -1
    outer loop
      vertex 7.3 0 0
      vertex 11.8 0 0
      vertex 7.14048 -1.51775 0
    endloop
  endfacet
  facet normal 0 0 -1
    outer loop
      vertex -6.66888 -2.96918 0
      vertex -11.5421 -2.45336 0
      vertex -7.14048 -1.51775 0
    endloop
  endfacet
  facet normal 0 0 -1
    outer loop
      vertex -5.90582 -4.29083 0
      vertex -11.5421 -2.45336 0
      vertex -6.66888 -2.96918 0
    endloop
  endfacet
  facet normal 0 0 -1
    outer loop
      vertex -4.88465 -5.42496 0
      vertex -11.5421 -2.45336 0
      vertex -5.90582 -4.29083 0
    endloop
  endfacet
  facet normal 0 0 -1
    outer loop
      vertex -2.25582 -6.94271 0
      vertex 3.6464 -11.2225 0
      vertex -3.65 -6.32198 0
    endloop
  endfacet
  facet normal 0 0 -1
    outer loop
      vertex -11.5421 -2.45336 0
      vertex -4.88465 -5.42496 0
      vertex -3.65 -6.32198 0
    endloop
  endfacet
  facet normal 0 0 -1
    outer loop
      vertex -11.5421 -2.45336 0
      vertex -3.65 -6.32198 0
      vertex 3.6464 -11.2225 0
    endloop
  endfacet
  facet normal 0 0 -1
    outer loop
      vertex -0.763058 -7.26001 0
      vertex 5.9 -10.2191 0
      vertex -2.25582 -6.94271 0
    endloop
  endfacet
  facet normal 0 0 -1
    outer loop
      vertex 0.763058 -7.26001 0
      vertex 5.9 -10.2191 0
      vertex -0.763058 -7.26001 0
    endloop
  endfacet
  facet normal 0 0 -1
    outer loop
      vertex 2.25582 -6.94271 0
      vertex 7.89574 -8.76911 0
      vertex 0.763058 -7.26001 0
    endloop
  endfacet
  facet normal 0 0 -1
    outer loop
      vertex 3.65 -6.32198 0
      vertex 7.89574 -8.76911 0
      vertex 2.25582 -6.94271 0
    endloop
  endfacet
  facet normal 0 0 -1
    outer loop
      vertex 5.90582 -4.29083 0
      vertex 10.7798 -4.79949 0
      vertex 4.88465 -5.42496 0
    endloop
  endfacet
  facet normal 0 0 -1
    outer loop
      vertex 6.66888 -2.96918 0
      vertex 10.7798 -4.79949 0
      vertex 5.90582 -4.29083 0
    endloop
  endfacet
  facet normal 0 0 -1
    outer loop
      vertex 4.88465 -5.42496 0
      vertex 9.5464 -6.93587 0
      vertex 3.65 -6.32198 0
    endloop
  endfacet
  facet normal -0 0 -1
    outer loop
      vertex 7.14048 1.51775 0
      vertex 11.5421 2.45336 0
      vertex 7.3 0 0
    endloop
  endfacet
  facet normal -0 0 -1
    outer loop
      vertex 5.90582 4.29083 0
      vertex 10.7798 4.79949 0
      vertex 6.66888 2.96918 0
    endloop
  endfacet
  facet normal 0 0 -1
    outer loop
      vertex 6.66888 2.96918 0
      vertex 11.5421 2.45336 0
      vertex 7.14048 1.51775 0
    endloop
  endfacet
  facet normal -0 0 -1
    outer loop
      vertex 2.25582 6.94271 0
      vertex 5.9 10.2191 0
      vertex 3.65 6.32198 0
    endloop
  endfacet
  facet normal -0 0 -1
    outer loop
      vertex 0.763058 7.26001 0
      vertex 5.9 10.2191 0
      vertex 2.25582 6.94271 0
    endloop
  endfacet
  facet normal -0 0 -1
    outer loop
      vertex 3.65 6.32198 0
      vertex 7.89574 8.76911 0
      vertex 4.88465 5.42496 0
    endloop
  endfacet
  facet normal 0 0 -1
    outer loop
      vertex -2.25582 6.94271 0
      vertex 1.23344 11.7354 0
      vertex -0.763058 7.26001 0
    endloop
  endfacet
  facet normal 0 0 -1
    outer loop
      vertex -4.88465 5.42496 0
      vertex -1.23344 11.7354 0
      vertex -3.65 6.32198 0
    endloop
  endfacet
  facet normal 0 -0 -1
    outer loop
      vertex -6.66888 2.96918 0
      vertex -11.5421 -2.45336 0
      vertex -5.90582 4.29083 0
    endloop
  endfacet
  facet normal 0 0 -1
    outer loop
      vertex -5.90582 4.29083 0
      vertex -1.23344 11.7354 0
      vertex -4.88465 5.42496 0
    endloop
  endfacet
  facet normal 0 0 -1
    outer loop
      vertex -11.5421 -2.45336 0
      vertex -1.23344 11.7354 0
      vertex -5.90582 4.29083 0
    endloop
  endfacet
  facet normal 0 -0 -1
    outer loop
      vertex -7.14048 1.51775 0
      vertex -11.5421 -2.45336 0
      vertex -6.66888 2.96918 0
    endloop
  endfacet
  facet normal -0 0 -1
    outer loop
      vertex 4.88465 5.42496 0
      vertex 9.5464 6.93587 0
      vertex 5.90582 4.29083 0
    endloop
  endfacet
  facet normal 0 -0 -1
    outer loop
      vertex -7.3 0 0
      vertex -11.5421 -2.45336 0
      vertex -7.14048 1.51775 0
    endloop
  endfacet
  facet normal 0 0 -1
    outer loop
      vertex -3.65 6.32198 0
      vertex 1.23344 11.7354 0
      vertex -2.25582 6.94271 0
    endloop
  endfacet
  facet normal -0 0 -1
    outer loop
      vertex -0.763058 7.26001 0
      vertex 3.6464 11.2225 0
      vertex 0.763058 7.26001 0
    endloop
  endfacet
  facet normal 0 0 -1
    outer loop
      vertex 7.14048 -1.51775 0
      vertex 11.5421 -2.45336 0
      vertex 6.66888 -2.96918 0
    endloop
  endfacet
  facet normal -0.994522 0.104528 0
    outer loop
      vertex -11.8 0 0
      vertex -11.8 0 2
      vertex -11.5421 2.45336 0
    endloop
  endfacet
  facet normal -0.994522 0.104528 0
    outer loop
      vertex -11.5421 2.45336 0
      vertex -11.8 0 2
      vertex -11.5421 2.45336 2
    endloop
  endfacet
  facet normal -0.994522 -0.104528 -0
    outer loop
      vertex -11.8 0 0
      vertex -11.5421 -2.45336 0
      vertex -11.8 0 2
    endloop
  endfacet
  facet normal -0.994522 -0.104528 0
    outer loop
      vertex -11.8 0 2
      vertex -11.5421 -2.45336 0
      vertex -11.5421 -2.45336 2
    endloop
  endfacet
  facet normal -0.951056 -0.309017 -0
    outer loop
      vertex -11.5421 -2.45336 0
      vertex -10.7798 -4.79949 0
      vertex -11.5421 -2.45336 2
    endloop
  endfacet
  facet normal -0.951056 -0.309017 0
    outer loop
      vertex -11.5421 -2.45336 2
      vertex -10.7798 -4.79949 0
      vertex -10.7798 -4.79949 2
    endloop
  endfacet
  facet normal -0.866026 -0.5 -0
    outer loop
      vertex -10.7798 -4.79949 0
      vertex -9.5464 -6.93587 0
      vertex -10.7798 -4.79949 2
    endloop
  endfacet
  facet normal -0.866026 -0.5 0
    outer loop
      vertex -10.7798 -4.79949 2
      vertex -9.5464 -6.93587 0
      vertex -9.5464 -6.93587 2
    endloop
  endfacet
  facet normal -0.743145 -0.669131 -0
    outer loop
      vertex -9.5464 -6.93587 0
      vertex -7.89574 -8.76911 0
      vertex -9.5464 -6.93587 2
    endloop
  endfacet
  facet normal -0.743145 -0.669131 0
    outer loop
      vertex -9.5464 -6.93587 2
      vertex -7.89574 -8.76911 0
      vertex -7.89574 -8.76911 2
    endloop
  endfacet
  facet normal -0.587785 -0.809017 0
    outer loop
      vertex -7.89574 -8.76911 2
      vertex -7.89574 -8.76911 0
      vertex -5.9 -10.2191 0
    endloop
  endfacet
  facet normal -0.587785 -0.809017 0
    outer loop
      vertex -5.9 -10.2191 2
      vertex -7.89574 -8.76911 2
      vertex -5.9 -10.2191 0
    endloop
  endfacet
  facet normal -0.406737 -0.913545 0
    outer loop
      vertex -5.9 -10.2191 2
      vertex -5.9 -10.2191 0
      vertex -3.6464 -11.2225 0
    endloop
  endfacet
  facet normal -0.406737 -0.913545 0
    outer loop
      vertex -3.6464 -11.2225 2
      vertex -5.9 -10.2191 2
      vertex -3.6464 -11.2225 0
    endloop
  endfacet
  facet normal -0.207911 -0.978148 0
    outer loop
      vertex -3.6464 -11.2225 2
      vertex -3.6464 -11.2225 0
      vertex -1.23344 -11.7354 0
    endloop
  endfacet
  facet normal -0.207911 -0.978148 0
    outer loop
      vertex -1.23344 -11.7354 2
      vertex -3.6464 -11.2225 2
      vertex -1.23344 -11.7354 0
    endloop
  endfacet
  facet normal 0 -1 0
    outer loop
      vertex -1.23344 -11.7354 2
      vertex -1.23344 -11.7354 0
      vertex 1.23344 -11.7354 0
    endloop
  endfacet
  facet normal 0 -1 0
    outer loop
      vertex 1.23344 -11.7354 2
      vertex -1.23344 -11.7354 2
      vertex 1.23344 -11.7354 0
    endloop
  endfacet
  facet normal 0.207911 -0.978148 0
    outer loop
      vertex 1.23344 -11.7354 2
      vertex 1.23344 -11.7354 0
      vertex 3.6464 -11.2225 0
    endloop
  endfacet
  facet normal 0.207911 -0.978148 0
    outer loop
      vertex 3.6464 -11.2225 2
      vertex 1.23344 -11.7354 2
      vertex 3.6464 -11.2225 0
    endloop
  endfacet
  facet normal 0.406737 -0.913545 0
    outer loop
      vertex 3.6464 -11.2225 2
      vertex 3.6464 -11.2225 0
      vertex 5.9 -10.2191 0
    endloop
  endfacet
  facet normal 0.406737 -0.913545 0
    outer loop
      vertex 5.9 -10.2191 2
      vertex 3.6464 -11.2225 2
      vertex 5.9 -10.2191 0
    endloop
  endfacet
  facet normal 0.587785 -0.809017 0
    outer loop
      vertex 5.9 -10.2191 2
      vertex 5.9 -10.2191 0
      vertex 7.89574 -8.76911 0
    endloop
  endfacet
  facet normal 0.587785 -0.809017 0
    outer loop
      vertex 7.89574 -8.76911 2
      vertex 5.9 -10.2191 2
      vertex 7.89574 -8.76911 0
    endloop
  endfacet
  facet normal 0.743145 -0.669131 0
    outer loop
      vertex 7.89574 -8.76911 2
      vertex 7.89574 -8.76911 0
      vertex 9.5464 -6.93587 0
    endloop
  endfacet
  facet normal 0.743145 -0.669131 0
    outer loop
      vertex 9.5464 -6.93587 2
      vertex 7.89574 -8.76911 2
      vertex 9.5464 -6.93587 0
    endloop
  endfacet
  facet normal 0.866026 -0.5 0
    outer loop
      vertex 9.5464 -6.93587 2
      vertex 9.5464 -6.93587 0
      vertex 10.7798 -4.79949 0
    endloop
  endfacet
  facet normal 0.866026 -0.5 0
    outer loop
      vertex 10.7798 -4.79949 2
      vertex 9.5464 -6.93587 2
      vertex 10.7798 -4.79949 0
    endloop
  endfacet
  facet normal 0.951056 -0.309017 0
    outer loop
      vertex 10.7798 -4.79949 2
      vertex 10.7798 -4.79949 0
      vertex 11.5421 -2.45336 0
    endloop
  endfacet
  facet normal 0.951056 -0.309017 0
    outer loop
      vertex 11.5421 -2.45336 2
      vertex 10.7798 -4.79949 2
      vertex 11.5421 -2.45336 0
    endloop
  endfacet
  facet normal 0.994522 -0.104528 0
    outer loop
      vertex 11.5421 -2.45336 2
      vertex 11.5421 -2.45336 0
      vertex 11.8 0 0
    endloop
  endfacet
  facet normal 0.994522 -0.104528 0
    outer loop
      vertex 11.8 0 2
      vertex 11.5421 -2.45336 2
      vertex 11.8 0 0
    endloop
  endfacet
  facet normal 0.994522 0.104528 0
    outer loop
      vertex 11.8 0 0
      vertex 11.5421 2.45336 0
      vertex 11.5421 2.45336 2
    endloop
  endfacet
  facet normal 0.994522 0.104528 -0
    outer loop
      vertex 11.8 0 2
      vertex 11.8 0 0
      vertex 11.5421 2.45336 2
    endloop
  endfacet
  facet normal 0.951056 0.309017 0
    outer loop
      vertex 11.5421 2.45336 0
      vertex 10.7798 4.79949 0
      vertex 10.7798 4.79949 2
    endloop
  endfacet
  facet normal 0.951056 0.309017 -0
    outer loop
      vertex 11.5421 2.45336 2
      vertex 11.5421 2.45336 0
      vertex 10.7798 4.79949 2
    endloop
  endfacet
  facet normal 0.866026 0.5 0
    outer loop
      vertex 10.7798 4.79949 0
      vertex 9.5464 6.93587 0
      vertex 9.5464 6.93587 2
    endloop
  endfacet
  facet normal 0.866026 0.5 -0
    outer loop
      vertex 10.7798 4.79949 2
      vertex 10.7798 4.79949 0
      vertex 9.5464 6.93587 2
    endloop
  endfacet
  facet normal 0.743145 0.669131 0
    outer loop
      vertex 9.5464 6.93587 0
      vertex 7.89574 8.76911 0
      vertex 7.89574 8.76911 2
    endloop
  endfacet
  facet normal 0.743145 0.669131 -0
    outer loop
      vertex 9.5464 6.93587 2
      vertex 9.5464 6.93587 0
      vertex 7.89574 8.76911 2
    endloop
  endfacet
  facet normal 0.587785 0.809017 0
    outer loop
      vertex 5.9 10.2191 0
      vertex 5.9 10.2191 2
      vertex 7.89574 8.76911 0
    endloop
  endfacet
  facet normal 0.587785 0.809017 0
    outer loop
      vertex 7.89574 8.76911 0
      vertex 5.9 10.2191 2
      vertex 7.89574 8.76911 2
    endloop
  endfacet
  facet normal 0.406737 0.913545 0
    outer loop
      vertex 3.6464 11.2225 0
      vertex 3.6464 11.2225 2
      vertex 5.9 10.2191 0
    endloop
  endfacet
  facet normal 0.406737 0.913545 0
    outer loop
      vertex 5.9 10.2191 0
      vertex 3.6464 11.2225 2
      vertex 5.9 10.2191 2
    endloop
  endfacet
  facet normal 0.207911 0.978148 0
    outer loop
      vertex 1.23344 11.7354 0
      vertex 1.23344 11.7354 2
      vertex 3.6464 11.2225 0
    endloop
  endfacet
  facet normal 0.207911 0.978148 0
    outer loop
      vertex 3.6464 11.2225 0
      vertex 1.23344 11.7354 2
      vertex 3.6464 11.2225 2
    endloop
  endfacet
  facet normal 0 1 0
    outer loop
      vertex -1.23344 11.7354 0
      vertex -1.23344 11.7354 2
      vertex 1.23344 11.7354 0
    endloop
  endfacet
  facet normal 0 1 0
    outer loop
      vertex 1.23344 11.7354 0
      vertex -1.23344 11.7354 2
      vertex 1.23344 11.7354 2
    endloop
  endfacet
  facet normal -0.207911 0.978148 0
    outer loop
      vertex -3.6464 11.2225 0
      vertex -3.6464 11.2225 2
      vertex -1.23344 11.7354 0
    endloop
  endfacet
  facet normal -0.207911 0.978148 0
    outer loop
      vertex -1.23344 11.7354 0
      vertex -3.6464 11.2225 2
      vertex -1.23344 11.7354 2
    endloop
  endfacet
  facet normal -0.406737 0.913545 0
    outer loop
      vertex -5.9 10.2191 0
      vertex -5.9 10.2191 2
      vertex -3.6464 11.2225 0
    endloop
  endfacet
  facet normal -0.406737 0.913545 0
    outer loop
      vertex -3.6464 11.2225 0
      vertex -5.9 10.2191 2
      vertex -3.6464 11.2225 2
    endloop
  endfacet
  facet normal -0.587785 0.809017 0
    outer loop
      vertex -7.89574 8.76911 0
      vertex -7.89574 8.76911 2
      vertex -5.9 10.2191 0
    endloop
  endfacet
  facet normal -0.587785 0.809017 0
    outer loop
      vertex -5.9 10.2191 0
      vertex -7.89574 8.76911 2
      vertex -5.9 10.2191 2
    endloop
  endfacet
  facet normal -0.743145 0.669131 0
    outer loop
      vertex -9.5464 6.93587 0
      vertex -9.5464 6.93587 2
      vertex -7.89574 8.76911 0
    endloop
  endfacet
  facet normal -0.743145 0.669131 0
    outer loop
      vertex -7.89574 8.76911 0
      vertex -9.5464 6.93587 2
      vertex -7.89574 8.76911 2
    endloop
  endfacet
  facet normal -0.866026 0.5 0
    outer loop
      vertex -10.7798 4.79949 0
      vertex -10.7798 4.79949 2
      vertex -9.5464 6.93587 0
    endloop
  endfacet
  facet normal -0.866026 0.5 0
    outer loop
      vertex -9.5464 6.93587 0
      vertex -10.7798 4.79949 2
      vertex -9.5464 6.93587 2
    endloop
  endfacet
  facet normal -0.951056 0.309017 0
    outer loop
      vertex -11.5421 2.45336 0
      vertex -11.5421 2.45336 2
      vertex -10.7798 4.79949 0
    endloop
  endfacet
  facet normal -0.951056 0.309017 0
    outer loop
      vertex -10.7798 4.79949 0
      vertex -11.5421 2.45336 2
      vertex -10.7798 4.79949 2
    endloop
  endfacet
  facet normal 0.994522 0.104529 0
    outer loop
      vertex -7.3 0 2.4
      vertex -7.14048 -1.51775 2.4
      vertex -7.14048 -1.51775 0
    endloop
  endfacet
  facet normal 0.994522 0.104529 0
    outer loop
      vertex -7.3 0 0
      vertex -7.3 0 2.4
      vertex -7.14048 -1.51775 0
    endloop
  endfacet
  facet normal 0.994522 -0.104529 0
    outer loop
      vertex -7.14048 1.51775 0
      vertex -7.14048 1.51775 2.4
      vertex -7.3 0 2.4
    endloop
  endfacet
  facet normal 0.994522 -0.104529 0
    outer loop
      vertex -7.3 0 0
      vertex -7.14048 1.51775 0
      vertex -7.3 0 2.4
    endloop
  endfacet
  facet normal 0.951057 -0.309017 0
    outer loop
      vertex -6.66888 2.96918 0
      vertex -6.66888 2.96918 2.4
      vertex -7.14048 1.51775 2.4
    endloop
  endfacet
  facet normal 0.951057 -0.309017 0
    outer loop
      vertex -7.14048 1.51775 0
      vertex -6.66888 2.96918 0
      vertex -7.14048 1.51775 2.4
    endloop
  endfacet
  facet normal 0.866025 -0.5 0
    outer loop
      vertex -5.90582 4.29083 0
      vertex -5.90582 4.29083 2.4
      vertex -6.66888 2.96918 2.4
    endloop
  endfacet
  facet normal 0.866025 -0.5 0
    outer loop
      vertex -6.66888 2.96918 0
      vertex -5.90582 4.29083 0
      vertex -6.66888 2.96918 2.4
    endloop
  endfacet
  facet normal 0.743145 -0.669131 0
    outer loop
      vertex -4.88465 5.42496 0
      vertex -4.88465 5.42496 2.4
      vertex -5.90582 4.29083 2.4
    endloop
  endfacet
  facet normal 0.743145 -0.669131 0
    outer loop
      vertex -5.90582 4.29083 0
      vertex -4.88465 5.42496 0
      vertex -5.90582 4.29083 2.4
    endloop
  endfacet
  facet normal 0.587785 -0.809017 0
    outer loop
      vertex -3.65 6.32198 0
      vertex -3.65 6.32198 2.4
      vertex -4.88465 5.42496 2.4
    endloop
  endfacet
  facet normal 0.587785 -0.809017 0
    outer loop
      vertex -4.88465 5.42496 0
      vertex -3.65 6.32198 0
      vertex -4.88465 5.42496 2.4
    endloop
  endfacet
  facet normal 0.406737 -0.913545 0
    outer loop
      vertex -2.25582 6.94271 0
      vertex -2.25582 6.94271 2.4
      vertex -3.65 6.32198 2.4
    endloop
  endfacet
  facet normal 0.406737 -0.913545 0
    outer loop
      vertex -3.65 6.32198 0
      vertex -2.25582 6.94271 0
      vertex -3.65 6.32198 2.4
    endloop
  endfacet
  facet normal 0.207912 -0.978148 0
    outer loop
      vertex -0.763058 7.26001 0
      vertex -0.763058 7.26001 2.4
      vertex -2.25582 6.94271 2.4
    endloop
  endfacet
  facet normal 0.207912 -0.978148 0
    outer loop
      vertex -2.25582 6.94271 0
      vertex -0.763058 7.26001 0
      vertex -2.25582 6.94271 2.4
    endloop
  endfacet
  facet normal 0 -1 0
    outer loop
      vertex 0.763058 7.26001 0
      vertex 0.763058 7.26001 2.4
      vertex -0.763058 7.26001 2.4
    endloop
  endfacet
  facet normal -0 -1 -0
    outer loop
      vertex -0.763058 7.26001 0
      vertex 0.763058 7.26001 0
      vertex -0.763058 7.26001 2.4
    endloop
  endfacet
  facet normal -0.207912 -0.978148 -0
    outer loop
      vertex 2.25582 6.94271 0
      vertex 2.25582 6.94271 2.4
      vertex 0.763058 7.26001 2.4
    endloop
  endfacet
  facet normal -0.207912 -0.978148 -0
    outer loop
      vertex 0.763058 7.26001 0
      vertex 2.25582 6.94271 0
      vertex 0.763058 7.26001 2.4
    endloop
  endfacet
  facet normal -0.406737 -0.913545 -0
    outer loop
      vertex 3.65 6.32198 0
      vertex 3.65 6.32198 2.4
      vertex 2.25582 6.94271 2.4
    endloop
  endfacet
  facet normal -0.406737 -0.913545 -0
    outer loop
      vertex 2.25582 6.94271 0
      vertex 3.65 6.32198 0
      vertex 2.25582 6.94271 2.4
    endloop
  endfacet
  facet normal -0.587785 -0.809017 -0
    outer loop
      vertex 4.88465 5.42496 0
      vertex 4.88465 5.42496 2.4
      vertex 3.65 6.32198 2.4
    endloop
  endfacet
  facet normal -0.587785 -0.809017 -0
    outer loop
      vertex 3.65 6.32198 0
      vertex 4.88465 5.42496 0
      vertex 3.65 6.32198 2.4
    endloop
  endfacet
  facet normal -0.743145 -0.669131 0
    outer loop
      vertex 5.90582 4.29083 2.4
      vertex 4.88465 5.42496 2.4
      vertex 5.90582 4.29083 0
    endloop
  endfacet
  facet normal -0.743145 -0.669131 0
    outer loop
      vertex 5.90582 4.29083 0
      vertex 4.88465 5.42496 2.4
      vertex 4.88465 5.42496 0
    endloop
  endfacet
  facet normal -0.866025 -0.5 0
    outer loop
      vertex 6.66888 2.96918 2.4
      vertex 5.90582 4.29083 2.4
      vertex 6.66888 2.96918 0
    endloop
  endfacet
  facet normal -0.866025 -0.5 0
    outer loop
      vertex 6.66888 2.96918 0
      vertex 5.90582 4.29083 2.4
      vertex 5.90582 4.29083 0
    endloop
  endfacet
  facet normal -0.951057 -0.309017 0
    outer loop
      vertex 7.14048 1.51775 2.4
      vertex 6.66888 2.96918 2.4
      vertex 7.14048 1.51775 0
    endloop
  endfacet
  facet normal -0.951057 -0.309017 0
    outer loop
      vertex 7.14048 1.51775 0
      vertex 6.66888 2.96918 2.4
      vertex 6.66888 2.96918 0
    endloop
  endfacet
  facet normal -0.994522 -0.104529 0
    outer loop
      vertex 7.3 0 2.4
      vertex 7.14048 1.51775 2.4
      vertex 7.3 0 0
    endloop
  endfacet
  facet normal -0.994522 -0.104529 0
    outer loop
      vertex 7.3 0 0
      vertex 7.14048 1.51775 2.4
      vertex 7.14048 1.51775 0
    endloop
  endfacet
  facet normal -0.994522 0.104529 0
    outer loop
      vertex 7.3 0 2.4
      vertex 7.3 0 0
      vertex 7.14048 -1.51775 2.4
    endloop
  endfacet
  facet normal -0.994522 0.104529 0
    outer loop
      vertex 7.14048 -1.51775 2.4
      vertex 7.3 0 0
      vertex 7.14048 -1.51775 0
    endloop
  endfacet
  facet normal -0.951057 0.309017 0
    outer loop
      vertex 7.14048 -1.51775 2.4
      vertex 7.14048 -1.51775 0
      vertex 6.66888 -2.96918 2.4
    endloop
  endfacet
  facet normal -0.951057 0.309017 0
    outer loop
      vertex 6.66888 -2.96918 2.4
      vertex 7.14048 -1.51775 0
      vertex 6.66888 -2.96918 0
    endloop
  endfacet
  facet normal -0.866025 0.5 0
    outer loop
      vertex 6.66888 -2.96918 2.4
      vertex 6.66888 -2.96918 0
      vertex 5.90582 -4.29083 2.4
    endloop
  endfacet
  facet normal -0.866025 0.5 0
    outer loop
      vertex 5.90582 -4.29083 2.4
      vertex 6.66888 -2.96918 0
      vertex 5.90582 -4.29083 0
    endloop
  endfacet
  facet normal -0.743145 0.669131 0
    outer loop
      vertex 5.90582 -4.29083 2.4
      vertex 5.90582 -4.29083 0
      vertex 4.88465 -5.42496 2.4
    endloop
  endfacet
  facet normal -0.743145 0.669131 0
    outer loop
      vertex 4.88465 -5.42496 2.4
      vertex 5.90582 -4.29083 0
      vertex 4.88465 -5.42496 0
    endloop
  endfacet
  facet normal -0.587785 0.809017 0
    outer loop
      vertex 4.88465 -5.42496 2.4
      vertex 4.88465 -5.42496 0
      vertex 3.65 -6.32198 2.4
    endloop
  endfacet
  facet normal -0.587785 0.809017 0
    outer loop
      vertex 3.65 -6.32198 2.4
      vertex 4.88465 -5.42496 0
      vertex 3.65 -6.32198 0
    endloop
  endfacet
  facet normal -0.406737 0.913545 0
    outer loop
      vertex 3.65 -6.32198 2.4
      vertex 3.65 -6.32198 0
      vertex 2.25582 -6.94271 2.4
    endloop
  endfacet
  facet normal -0.406737 0.913545 0
    outer loop
      vertex 2.25582 -6.94271 2.4
      vertex 3.65 -6.32198 0
      vertex 2.25582 -6.94271 0
    endloop
  endfacet
  facet normal -0.207912 0.978148 0
    outer loop
      vertex 2.25582 -6.94271 2.4
      vertex 2.25582 -6.94271 0
      vertex 0.763058 -7.26001 2.4
    endloop
  endfacet
  facet normal -0.207912 0.978148 0
    outer loop
      vertex 0.763058 -7.26001 2.4
      vertex 2.25582 -6.94271 0
      vertex 0.763058 -7.26001 0
    endloop
  endfacet
  facet normal 0 1 0
    outer loop
      vertex 0.763058 -7.26001 2.4
      vertex 0.763058 -7.26001 0
      vertex -0.763058 -7.26001 2.4
    endloop
  endfacet
  facet normal 0 1 -0
    outer loop
      vertex -0.763058 -7.26001 2.4
      vertex 0.763058 -7.26001 0
      vertex -0.763058 -7.26001 0
    endloop
  endfacet
  facet normal 0.207912 0.978148 -0
    outer loop
      vertex -0.763058 -7.26001 2.4
      vertex -0.763058 -7.26001 0
      vertex -2.25582 -6.94271 2.4
    endloop
  endfacet
  facet normal 0.207912 0.978148 -0
    outer loop
      vertex -2.25582 -6.94271 2.4
      vertex -0.763058 -7.26001 0
      vertex -2.25582 -6.94271 0
    endloop
  endfacet
  facet normal 0.406737 0.913545 -0
    outer loop
      vertex -2.25582 -6.94271 2.4
      vertex -2.25582 -6.94271 0
      vertex -3.65 -6.32198 2.4
    endloop
  endfacet
  facet normal 0.406737 0.913545 -0
    outer loop
      vertex -3.65 -6.32198 2.4
      vertex -2.25582 -6.94271 0
      vertex -3.65 -6.32198 0
    endloop
  endfacet
  facet normal 0.587785 0.809017 -0
    outer loop
      vertex -3.65 -6.32198 2.4
      vertex -3.65 -6.32198 0
      vertex -4.88465 -5.42496 2.4
    endloop
  endfacet
  facet normal 0.587785 0.809017 -0
    outer loop
      vertex -4.88465 -5.42496 2.4
      vertex -3.65 -6.32198 0
      vertex -4.88465 -5.42496 0
    endloop
  endfacet
  facet normal 0.743145 0.669131 0
    outer loop
      vertex -5.90582 -4.29083 2.4
      vertex -4.88465 -5.42496 2.4
      vertex -4.88465 -5.42496 0
    endloop
  endfacet
  facet normal 0.743145 0.669131 0
    outer loop
      vertex -5.90582 -4.29083 0
      vertex -5.90582 -4.29083 2.4
      vertex -4.88465 -5.42496 0
    endloop
  endfacet
  facet normal 0.866025 0.5 0
    outer loop
      vertex -6.66888 -2.96918 2.4
      vertex -5.90582 -4.29083 2.4
      vertex -5.90582 -4.29083 0
    endloop
  endfacet
  facet normal 0.866025 0.5 0
    outer loop
      vertex -6.66888 -2.96918 0
      vertex -6.66888 -2.96918 2.4
      vertex -5.90582 -4.29083 0
    endloop
  endfacet
  facet normal 0.951057 0.309017 0
    outer loop
      vertex -7.14048 -1.51775 2.4
      vertex -6.66888 -2.96918 2.4
      vertex -6.66888 -2.96918 0
    endloop
  endfacet
  facet normal 0.951057 0.309017 0
    outer loop
      vertex -7.14048 -1.51775 0
      vertex -7.14048 -1.51775 2.4
      vertex -6.66888 -2.96918 0
    endloop
  endfacet
  facet normal 0 0 1
    outer loop
      vertex -11.5421 2.45336 2
      vertex -11.8 0 2
      vertex -11.5421 -2.45336 2
    endloop
  endfacet
  facet normal 0 0 1
    outer loop
      vertex -9.5464 -6.93587 2
      vertex -11.5421 2.45336 2
      vertex -10.7798 -4.79949 2
    endloop
  endfacet
  facet normal 0 0 1
    outer loop
      vertex -10.7798 -4.79949 2
      vertex -11.5421 2.45336 2
      vertex -11.5421 -2.45336 2
    endloop
  endfacet
  facet normal 0 0 1
    outer loop
      vertex -7.89574 -8.76911 2
      vertex -11.5421 2.45336 2
      vertex -9.5464 -6.93587 2
    endloop
  endfacet
  facet normal 0 0 1
    outer loop
      vertex -5.9 -10.2191 2
      vertex -11.5421 2.45336 2
      vertex -7.89574 -8.76911 2
    endloop
  endfacet
  facet normal -0 -0 1
    outer loop
      vertex -8.49597 -3.78265 2
      vertex -11.5421 2.45336 2
      vertex -5.9 -10.2191 2
    endloop
  endfacet
  facet normal 0 -0 1
    outer loop
      vertex 6.22291 -6.91125 2
      vertex 4.65 -8.05404 2
      vertex 7.89574 -8.76911 2
    endloop
  endfacet
  facet normal 0 -0 1
    outer loop
      vertex 7.52386 -5.4664 2
      vertex 6.22291 -6.91125 2
      vertex 9.5464 -6.93587 2
    endloop
  endfacet
  facet normal 0 0 1
    outer loop
      vertex -9.09677 1.93358 2
      vertex -8.49597 3.78265 2
      vertex -11.5421 2.45336 2
    endloop
  endfacet
  facet normal 0 -0 1
    outer loop
      vertex 2.87386 -8.84483 2
      vertex 0.972115 -9.24905 2
      vertex 3.6464 -11.2225 2
    endloop
  endfacet
  facet normal 0 0 1
    outer loop
      vertex 8.49597 3.78265 2
      vertex 9.09677 1.93358 2
      vertex 11.5421 2.45336 2
    endloop
  endfacet
  facet normal 0 0 1
    outer loop
      vertex 4.65 8.05404 2
      vertex 6.22291 6.91125 2
      vertex 7.89574 8.76911 2
    endloop
  endfacet
  facet normal 0 0 1
    outer loop
      vertex 0.972115 9.24905 2
      vertex 2.87386 8.84483 2
      vertex 5.9 10.2191 2
    endloop
  endfacet
  facet normal 0 -0 1
    outer loop
      vertex -3.6464 11.2225 2
      vertex -11.5421 2.45336 2
      vertex -1.23344 11.7354 2
    endloop
  endfacet
  facet normal 0 -0 1
    outer loop
      vertex -5.9 10.2191 2
      vertex -11.5421 2.45336 2
      vertex -3.6464 11.2225 2
    endloop
  endfacet
  facet normal 0 -0 1
    outer loop
      vertex -7.89574 8.76911 2
      vertex -11.5421 2.45336 2
      vertex -5.9 10.2191 2
    endloop
  endfacet
  facet normal 0 -0 1
    outer loop
      vertex -9.5464 6.93587 2
      vertex -11.5421 2.45336 2
      vertex -7.89574 8.76911 2
    endloop
  endfacet
  facet normal 0 -0 1
    outer loop
      vertex -10.7798 4.79949 2
      vertex -11.5421 2.45336 2
      vertex -9.5464 6.93587 2
    endloop
  endfacet
  facet normal -0 -0 1
    outer loop
      vertex -2.87386 -8.84483 2
      vertex -4.65 -8.05404 2
      vertex -1.23344 -11.7354 2
    endloop
  endfacet
  facet normal 0 -0 1
    outer loop
      vertex 8.49597 -3.78265 2
      vertex 7.52386 -5.4664 2
      vertex 10.7798 -4.79949 2
    endloop
  endfacet
  facet normal 0 0 1
    outer loop
      vertex 6.22291 6.91125 2
      vertex 7.52386 5.4664 2
      vertex 9.5464 6.93587 2
    endloop
  endfacet
  facet normal 0 0 1
    outer loop
      vertex -0.972115 9.24905 2
      vertex 0.972115 9.24905 2
      vertex 3.6464 11.2225 2
    endloop
  endfacet
  facet normal 0 0 1
    outer loop
      vertex -6.22291 6.91125 2
      vertex -11.5421 2.45336 2
      vertex -7.52386 5.4664 2
    endloop
  endfacet
  facet normal 0 0 1
    outer loop
      vertex -2.87386 8.84483 2
      vertex -0.972115 9.24905 2
      vertex 1.23344 11.7354 2
    endloop
  endfacet
  facet normal 0 0 1
    outer loop
      vertex -1.23344 11.7354 2
      vertex -11.5421 2.45336 2
      vertex -6.22291 6.91125 2
    endloop
  endfacet
  facet normal 0 -0 1
    outer loop
      vertex -1.23344 11.7354 2
      vertex -4.65 8.05404 2
      vertex 1.23344 11.7354 2
    endloop
  endfacet
  facet normal 0 0 1
    outer loop
      vertex -4.65 8.05404 2
      vertex -2.87386 8.84483 2
      vertex 1.23344 11.7354 2
    endloop
  endfacet
  facet normal 0 -0 1
    outer loop
      vertex 1.23344 11.7354 2
      vertex -0.972115 9.24905 2
      vertex 3.6464 11.2225 2
    endloop
  endfacet
  facet normal 0 0 1
    outer loop
      vertex -6.22291 6.91125 2
      vertex -4.65 8.05404 2
      vertex -1.23344 11.7354 2
    endloop
  endfacet
  facet normal 0 -0 1
    outer loop
      vertex 3.6464 11.2225 2
      vertex 0.972115 9.24905 2
      vertex 5.9 10.2191 2
    endloop
  endfacet
  facet normal 0 -0 1
    outer loop
      vertex 5.9 10.2191 2
      vertex 2.87386 8.84483 2
      vertex 7.89574 8.76911 2
    endloop
  endfacet
  facet normal 0 0 1
    outer loop
      vertex 2.87386 8.84483 2
      vertex 4.65 8.05404 2
      vertex 7.89574 8.76911 2
    endloop
  endfacet
  facet normal 0 -0 1
    outer loop
      vertex 7.89574 8.76911 2
      vertex 6.22291 6.91125 2
      vertex 9.5464 6.93587 2
    endloop
  endfacet
  facet normal 0 -0 1
    outer loop
      vertex 9.5464 6.93587 2
      vertex 7.52386 5.4664 2
      vertex 10.7798 4.79949 2
    endloop
  endfacet
  facet normal 0 0 1
    outer loop
      vertex 9.09677 1.93358 2
      vertex 9.3 0 2
      vertex 11.8 0 2
    endloop
  endfacet
  facet normal 0 -0 1
    outer loop
      vertex 10.7798 4.79949 2
      vertex 8.49597 3.78265 2
      vertex 11.5421 2.45336 2
    endloop
  endfacet
  facet normal -0 0 1
    outer loop
      vertex -8.49597 3.78265 2
      vertex -7.52386 5.4664 2
      vertex -11.5421 2.45336 2
    endloop
  endfacet
  facet normal 0 -0 1
    outer loop
      vertex 11.5421 2.45336 2
      vertex 9.09677 1.93358 2
      vertex 11.8 0 2
    endloop
  endfacet
  facet normal 0 0 1
    outer loop
      vertex 11.8 0 2
      vertex 9.3 0 2
      vertex 11.5421 -2.45336 2
    endloop
  endfacet
  facet normal -0 0 1
    outer loop
      vertex 11.5421 -2.45336 2
      vertex 9.09677 -1.93358 2
      vertex 10.7798 -4.79949 2
    endloop
  endfacet
  facet normal 0 0 1
    outer loop
      vertex 7.52386 5.4664 2
      vertex 8.49597 3.78265 2
      vertex 10.7798 4.79949 2
    endloop
  endfacet
  facet normal 0 -0 1
    outer loop
      vertex 9.09677 -1.93358 2
      vertex 8.49597 -3.78265 2
      vertex 10.7798 -4.79949 2
    endloop
  endfacet
  facet normal 0 0 1
    outer loop
      vertex 10.7798 -4.79949 2
      vertex 7.52386 -5.4664 2
      vertex 9.5464 -6.93587 2
    endloop
  endfacet
  facet normal -0 0 1
    outer loop
      vertex 9.5464 -6.93587 2
      vertex 6.22291 -6.91125 2
      vertex 7.89574 -8.76911 2
    endloop
  endfacet
  facet normal -0 0 1
    outer loop
      vertex 7.89574 -8.76911 2
      vertex 4.65 -8.05404 2
      vertex 5.9 -10.2191 2
    endloop
  endfacet
  facet normal 0 -0 1
    outer loop
      vertex 9.3 0 2
      vertex 9.09677 -1.93358 2
      vertex 11.5421 -2.45336 2
    endloop
  endfacet
  facet normal -0 0 1
    outer loop
      vertex 5.9 -10.2191 2
      vertex 2.87386 -8.84483 2
      vertex 3.6464 -11.2225 2
    endloop
  endfacet
  facet normal -0 0 1
    outer loop
      vertex 3.6464 -11.2225 2
      vertex 0.972115 -9.24905 2
      vertex 1.23344 -11.7354 2
    endloop
  endfacet
  facet normal 0 -0 1
    outer loop
      vertex 0.972115 -9.24905 2
      vertex -0.972115 -9.24905 2
      vertex 1.23344 -11.7354 2
    endloop
  endfacet
  facet normal -0 0 1
    outer loop
      vertex 1.23344 -11.7354 2
      vertex -2.87386 -8.84483 2
      vertex -1.23344 -11.7354 2
    endloop
  endfacet
  facet normal 0 0 1
    outer loop
      vertex -1.23344 -11.7354 2
      vertex -4.65 -8.05404 2
      vertex -3.6464 -11.2225 2
    endloop
  endfacet
  facet normal 0 0 1
    outer loop
      vertex -3.6464 -11.2225 2
      vertex -6.22291 -6.91125 2
      vertex -5.9 -10.2191 2
    endloop
  endfacet
  facet normal -0 -0 1
    outer loop
      vertex -6.22291 -6.91125 2
      vertex -7.52386 -5.4664 2
      vertex -5.9 -10.2191 2
    endloop
  endfacet
  facet normal -0 -0 1
    outer loop
      vertex -9.09677 -1.93358 2
      vertex -11.5421 2.45336 2
      vertex -8.49597 -3.78265 2
    endloop
  endfacet
  facet normal -0 -0 1
    outer loop
      vertex -7.52386 -5.4664 2
      vertex -8.49597 -3.78265 2
      vertex -5.9 -10.2191 2
    endloop
  endfacet
  facet normal 0 0 1
    outer loop
      vertex -9.09677 -1.93358 2
      vertex -9.3 0 2
      vertex -11.5421 2.45336 2
    endloop
  endfacet
  facet normal 0 -0 1
    outer loop
      vertex 4.65 -8.05404 2
      vertex 2.87386 -8.84483 2
      vertex 5.9 -10.2191 2
    endloop
  endfacet
  facet normal -0 -0 1
    outer loop
      vertex -4.65 -8.05404 2
      vertex -6.22291 -6.91125 2
      vertex -3.6464 -11.2225 2
    endloop
  endfacet
  facet normal -0 -0 1
    outer loop
      vertex -0.972115 -9.24905 2
      vertex -2.87386 -8.84483 2
      vertex 1.23344 -11.7354 2
    endloop
  endfacet
  facet normal 0 0 1
    outer loop
      vertex -9.3 0 2
      vertex -9.09677 1.93358 2
      vertex -11.5421 2.45336 2
    endloop
  endfacet
  facet normal 0 0 1
    outer loop
      vertex -8.11862 -1.72567 2.4
      vertex -7.58243 -3.37591 2.4
      vertex -6.71484 -4.87862 2.4
    endloop
  endfacet
  facet normal 0 0 1
    outer loop
      vertex -4.15 -7.18801 2.4
      vertex -8.11862 -1.72567 2.4
      vertex -5.55378 -6.1681 2.4
    endloop
  endfacet
  facet normal 0 0 1
    outer loop
      vertex -5.55378 -6.1681 2.4
      vertex -8.11862 -1.72567 2.4
      vertex -6.71484 -4.87862 2.4
    endloop
  endfacet
  facet normal -0 -0 1
    outer loop
      vertex -5.90582 -4.29083 2.4
      vertex -8.11862 -1.72567 2.4
      vertex -4.15 -7.18801 2.4
    endloop
  endfacet
  facet normal -0 -0 1
    outer loop
      vertex -3.65 -6.32198 2.4
      vertex -4.88465 -5.42496 2.4
      vertex -2.56484 -7.89377 2.4
    endloop
  endfacet
  facet normal -0 -0 1
    outer loop
      vertex -2.25582 -6.94271 2.4
      vertex -3.65 -6.32198 2.4
      vertex -0.867586 -8.25453 2.4
    endloop
  endfacet
  facet normal 0 -0 1
    outer loop
      vertex 0.763058 -7.26001 2.4
      vertex -0.763058 -7.26001 2.4
      vertex 0.867586 -8.25453 2.4
    endloop
  endfacet
  facet normal 0 -0 1
    outer loop
      vertex 2.25582 -6.94271 2.4
      vertex 0.763058 -7.26001 2.4
      vertex 2.56484 -7.89377 2.4
    endloop
  endfacet
  facet normal 0 -0 1
    outer loop
      vertex 3.65 -6.32198 2.4
      vertex 2.25582 -6.94271 2.4
      vertex 4.15 -7.18801 2.4
    endloop
  endfacet
  facet normal 0 -0 1
    outer loop
      vertex 4.88465 -5.42496 2.4
      vertex 3.65 -6.32198 2.4
      vertex 5.55378 -6.1681 2.4
    endloop
  endfacet
  facet normal 0 -0 1
    outer loop
      vertex 5.90582 -4.29083 2.4
      vertex 4.88465 -5.42496 2.4
      vertex 6.71484 -4.87862 2.4
    endloop
  endfacet
  facet normal 0 -0 1
    outer loop
      vertex 6.66888 -2.96918 2.4
      vertex 5.90582 -4.29083 2.4
      vertex 7.58243 -3.37591 2.4
    endloop
  endfacet
  facet normal 0 -0 1
    outer loop
      vertex 7.14048 -1.51775 2.4
      vertex 6.66888 -2.96918 2.4
      vertex 8.11862 -1.72567 2.4
    endloop
  endfacet
  facet normal 0 -0 1
    outer loop
      vertex 7.3 0 2.4
      vertex 7.14048 -1.51775 2.4
      vertex 8.3 0 2.4
    endloop
  endfacet
  facet normal 0 0 1
    outer loop
      vertex -6.66888 -2.96918 2.4
      vertex -7.14048 -1.51775 2.4
      vertex -8.11862 -1.72567 2.4
    endloop
  endfacet
  facet normal 0 0 1
    outer loop
      vertex -3.65 6.32198 2.4
      vertex -2.25582 6.94271 2.4
      vertex -2.56484 7.89377 2.4
    endloop
  endfacet
  facet normal 0 0 1
    outer loop
      vertex -5.90582 4.29083 2.4
      vertex -4.88465 5.42496 2.4
      vertex -4.15 7.18801 2.4
    endloop
  endfacet
  facet normal 0 -0 1
    outer loop
      vertex -7.58243 3.37591 2.4
      vertex -8.11862 -1.72567 2.4
      vertex -6.71484 4.87862 2.4
    endloop
  endfacet
  facet normal 0 -0 1
    outer loop
      vertex -8.11862 1.72567 2.4
      vertex -8.11862 -1.72567 2.4
      vertex -7.58243 3.37591 2.4
    endloop
  endfacet
  facet normal 0 0 1
    outer loop
      vertex -8.3 0 2.4
      vertex -8.11862 -1.72567 2.4
      vertex -8.11862 1.72567 2.4
    endloop
  endfacet
  facet normal 0 0 1
    outer loop
      vertex -2.25582 6.94271 2.4
      vertex -0.763058 7.26001 2.4
      vertex -0.867586 8.25453 2.4
    endloop
  endfacet
  facet normal 0 0 1
    outer loop
      vertex -5.90582 -4.29083 2.4
      vertex -6.66888 -2.96918 2.4
      vertex -8.11862 -1.72567 2.4
    endloop
  endfacet
  facet normal 0 0 1
    outer loop
      vertex -6.71484 4.87862 2.4
      vertex -8.11862 -1.72567 2.4
      vertex -7.14048 1.51775 2.4
    endloop
  endfacet
  facet normal 0 0 1
    outer loop
      vertex -6.71484 4.87862 2.4
      vertex -6.66888 2.96918 2.4
      vertex -5.55378 6.1681 2.4
    endloop
  endfacet
  facet normal 0 -0 1
    outer loop
      vertex -6.71484 4.87862 2.4
      vertex -7.14048 1.51775 2.4
      vertex -6.66888 2.96918 2.4
    endloop
  endfacet
  facet normal 0 -0 1
    outer loop
      vertex -5.55378 6.1681 2.4
      vertex -5.90582 4.29083 2.4
      vertex -4.15 7.18801 2.4
    endloop
  endfacet
  facet normal 0 0 1
    outer loop
      vertex -6.66888 2.96918 2.4
      vertex -5.90582 4.29083 2.4
      vertex -5.55378 6.1681 2.4
    endloop
  endfacet
  facet normal 0 -0 1
    outer loop
      vertex -4.15 7.18801 2.4
      vertex -4.88465 5.42496 2.4
      vertex -2.56484 7.89377 2.4
    endloop
  endfacet
  facet normal 0 0 1
    outer loop
      vertex -4.88465 5.42496 2.4
      vertex -3.65 6.32198 2.4
      vertex -2.56484 7.89377 2.4
    endloop
  endfacet
  facet normal 0 0 1
    outer loop
      vertex -2.56484 7.89377 2.4
      vertex -2.25582 6.94271 2.4
      vertex -0.867586 8.25453 2.4
    endloop
  endfacet
  facet normal 0 0 1
    outer loop
      vertex 6.66888 2.96918 2.4
      vertex 7.14048 1.51775 2.4
      vertex 8.11862 1.72567 2.4
    endloop
  endfacet
  facet normal 0 0 1
    outer loop
      vertex -0.867586 8.25453 2.4
      vertex -0.763058 7.26001 2.4
      vertex 0.867586 8.25453 2.4
    endloop
  endfacet
  facet normal -0 0 1
    outer loop
      vertex -7.3 0 2.4
      vertex -7.14048 1.51775 2.4
      vertex -8.11862 -1.72567 2.4
    endloop
  endfacet
  facet normal 0 -0 1
    outer loop
      vertex 0.867586 8.25453 2.4
      vertex 0.763058 7.26001 2.4
      vertex 2.56484 7.89377 2.4
    endloop
  endfacet
  facet normal 0 -0 1
    outer loop
      vertex 2.56484 7.89377 2.4
      vertex 2.25582 6.94271 2.4
      vertex 4.15 7.18801 2.4
    endloop
  endfacet
  facet normal 0 -0 1
    outer loop
      vertex 4.15 7.18801 2.4
      vertex 3.65 6.32198 2.4
      vertex 5.55378 6.1681 2.4
    endloop
  endfacet
  facet normal 0 -0 1
    outer loop
      vertex 5.55378 6.1681 2.4
      vertex 4.88465 5.42496 2.4
      vertex 6.71484 4.87862 2.4
    endloop
  endfacet
  facet normal 0 -0 1
    outer loop
      vertex 6.71484 4.87862 2.4
      vertex 5.90582 4.29083 2.4
      vertex 7.58243 3.37591 2.4
    endloop
  endfacet
  facet normal 0 -0 1
    outer loop
      vertex 7.58243 3.37591 2.4
      vertex 6.66888 2.96918 2.4
      vertex 8.11862 1.72567 2.4
    endloop
  endfacet
  facet normal 0 -0 1
    outer loop
      vertex 8.11862 1.72567 2.4
      vertex 7.14048 1.51775 2.4
      vertex 8.3 0 2.4
    endloop
  endfacet
  facet normal 0 0 1
    outer loop
      vertex 7.14048 1.51775 2.4
      vertex 7.3 0 2.4
      vertex 8.3 0 2.4
    endloop
  endfacet
  facet normal 0 0 1
    outer loop
      vertex 8.3 0 2.4
      vertex 7.14048 -1.51775 2.4
      vertex 8.11862 -1.72567 2.4
    endloop
  endfacet
  facet normal 0 0 1
    outer loop
      vertex 8.11862 -1.72567 2.4
      vertex 6.66888 -2.96918 2.4
      vertex 7.58243 -3.37591 2.4
    endloop
  endfacet
  facet normal 0 0 1
    outer loop
      vertex 7.58243 -3.37591 2.4
      vertex 5.90582 -4.29083 2.4
      vertex 6.71484 -4.87862 2.4
    endloop
  endfacet
  facet normal 0 0 1
    outer loop
      vertex 6.71484 -4.87862 2.4
      vertex 4.88465 -5.42496 2.4
      vertex 5.55378 -6.1681 2.4
    endloop
  endfacet
  facet normal 0 0 1
    outer loop
      vertex 5.55378 -6.1681 2.4
      vertex 3.65 -6.32198 2.4
      vertex 4.15 -7.18801 2.4
    endloop
  endfacet
  facet normal -0 0 1
    outer loop
      vertex 4.15 -7.18801 2.4
      vertex 2.25582 -6.94271 2.4
      vertex 2.56484 -7.89377 2.4
    endloop
  endfacet
  facet normal -0 0 1
    outer loop
      vertex 2.56484 -7.89377 2.4
      vertex 0.763058 -7.26001 2.4
      vertex 0.867586 -8.25453 2.4
    endloop
  endfacet
  facet normal -0 0 1
    outer loop
      vertex 0.867586 -8.25453 2.4
      vertex -0.763058 -7.26001 2.4
      vertex -0.867586 -8.25453 2.4
    endloop
  endfacet
  facet normal -0 0 1
    outer loop
      vertex -0.763058 -7.26001 2.4
      vertex -2.25582 -6.94271 2.4
      vertex -0.867586 -8.25453 2.4
    endloop
  endfacet
  facet normal 0 0 1
    outer loop
      vertex -0.867586 -8.25453 2.4
      vertex -3.65 -6.32198 2.4
      vertex -2.56484 -7.89377 2.4
    endloop
  endfacet
  facet normal 0 0 1
    outer loop
      vertex -2.56484 -7.89377 2.4
      vertex -4.88465 -5.42496 2.4
      vertex -4.15 -7.18801 2.4
    endloop
  endfacet
  facet normal -0 -0 1
    outer loop
      vertex -4.88465 -5.42496 2.4
      vertex -5.90582 -4.29083 2.4
      vertex -4.15 -7.18801 2.4
    endloop
  endfacet
  facet normal 0 0 1
    outer loop
      vertex -0.763058 7.26001 2.4
      vertex 0.763058 7.26001 2.4
      vertex 0.867586 8.25453 2.4
    endloop
  endfacet
  facet normal 0 0 1
    outer loop
      vertex 0.763058 7.26001 2.4
      vertex 2.25582 6.94271 2.4
      vertex 2.56484 7.89377 2.4
    endloop
  endfacet
  facet normal 0 0 1
    outer loop
      vertex 2.25582 6.94271 2.4
      vertex 3.65 6.32198 2.4
      vertex 4.15 7.18801 2.4
    endloop
  endfacet
  facet normal 0 0 1
    outer loop
      vertex 3.65 6.32198 2.4
      vertex 4.88465 5.42496 2.4
      vertex 5.55378 6.1681 2.4
    endloop
  endfacet
  facet normal 0 0 1
    outer loop
      vertex 4.88465 5.42496 2.4
      vertex 5.90582 4.29083 2.4
      vertex 6.71484 4.87862 2.4
    endloop
  endfacet
  facet normal 0 0 1
    outer loop
      vertex 5.90582 4.29083 2.4
      vertex 6.66888 2.96918 2.4
      vertex 7.58243 3.37591 2.4
    endloop
  endfacet
  facet normal -0 0 1
    outer loop
      vertex -7.14048 -1.51775 2.4
      vertex -7.3 0 2.4
      vertex -8.11862 -1.72567 2.4
    endloop
  endfacet
  facet normal -0.994522 -0.104528 -0
    outer loop
      vertex -9.3 0 2
      vertex -9.09677 -1.93358 2
      vertex -9.3 0 8
    endloop
  endfacet
  facet normal -0.994522 -0.104528 0
    outer loop
      vertex -9.3 0 8
      vertex -9.09677 -1.93358 2
      vertex -9.09677 -1.93358 8
    endloop
  endfacet
  facet normal -0.951057 -0.309017 -0
    outer loop
      vertex -9.09677 -1.93358 2
      vertex -8.49597 -3.78265 2
      vertex -9.09677 -1.93358 8
    endloop
  endfacet
  facet normal -0.951057 -0.309017 0
    outer loop
      vertex -9.09677 -1.93358 8
      vertex -8.49597 -3.78265 2
      vertex -8.49597 -3.78265 8
    endloop
  endfacet
  facet normal -0.866025 -0.5 -0
    outer loop
      vertex -8.49597 -3.78265 2
      vertex -7.52386 -5.4664 2
      vertex -8.49597 -3.78265 8
    endloop
  endfacet
  facet normal -0.866025 -0.5 0
    outer loop
      vertex -8.49597 -3.78265 8
      vertex -7.52386 -5.4664 2
      vertex -7.52386 -5.4664 8
    endloop
  endfacet
  facet normal -0.743145 -0.66913 -0
    outer loop
      vertex -7.52386 -5.4664 2
      vertex -6.22291 -6.91125 2
      vertex -7.52386 -5.4664 8
    endloop
  endfacet
  facet normal -0.743145 -0.66913 0
    outer loop
      vertex -7.52386 -5.4664 8
      vertex -6.22291 -6.91125 2
      vertex -6.22291 -6.91125 8
    endloop
  endfacet
  facet normal -0.587785 -0.809017 0
    outer loop
      vertex -6.22291 -6.91125 8
      vertex -6.22291 -6.91125 2
      vertex -4.65 -8.05404 2
    endloop
  endfacet
  facet normal -0.587785 -0.809017 0
    outer loop
      vertex -4.65 -8.05404 8
      vertex -6.22291 -6.91125 8
      vertex -4.65 -8.05404 2
    endloop
  endfacet
  facet normal -0.406737 -0.913545 0
    outer loop
      vertex -4.65 -8.05404 8
      vertex -4.65 -8.05404 2
      vertex -2.87386 -8.84483 2
    endloop
  endfacet
  facet normal -0.406737 -0.913545 0
    outer loop
      vertex -2.87386 -8.84483 8
      vertex -4.65 -8.05404 8
      vertex -2.87386 -8.84483 2
    endloop
  endfacet
  facet normal -0.207912 -0.978148 0
    outer loop
      vertex -2.87386 -8.84483 8
      vertex -2.87386 -8.84483 2
      vertex -0.972115 -9.24905 2
    endloop
  endfacet
  facet normal -0.207912 -0.978148 0
    outer loop
      vertex -0.972115 -9.24905 8
      vertex -2.87386 -8.84483 8
      vertex -0.972115 -9.24905 2
    endloop
  endfacet
  facet normal 0 -1 0
    outer loop
      vertex -0.972115 -9.24905 8
      vertex -0.972115 -9.24905 2
      vertex 0.972115 -9.24905 2
    endloop
  endfacet
  facet normal 0 -1 0
    outer loop
      vertex 0.972115 -9.24905 8
      vertex -0.972115 -9.24905 8
      vertex 0.972115 -9.24905 2
    endloop
  endfacet
  facet normal 0.207912 -0.978148 0
    outer loop
      vertex 0.972115 -9.24905 8
      vertex 0.972115 -9.24905 2
      vertex 2.87386 -8.84483 2
    endloop
  endfacet
  facet normal 0.207912 -0.978148 0
    outer loop
      vertex 2.87386 -8.84483 8
      vertex 0.972115 -9.24905 8
      vertex 2.87386 -8.84483 2
    endloop
  endfacet
  facet normal 0.406737 -0.913545 0
    outer loop
      vertex 2.87386 -8.84483 8
      vertex 2.87386 -8.84483 2
      vertex 4.65 -8.05404 2
    endloop
  endfacet
  facet normal 0.406737 -0.913545 0
    outer loop
      vertex 4.65 -8.05404 8
      vertex 2.87386 -8.84483 8
      vertex 4.65 -8.05404 2
    endloop
  endfacet
  facet normal 0.587785 -0.809017 0
    outer loop
      vertex 4.65 -8.05404 8
      vertex 4.65 -8.05404 2
      vertex 6.22291 -6.91125 2
    endloop
  endfacet
  facet normal 0.587785 -0.809017 0
    outer loop
      vertex 6.22291 -6.91125 8
      vertex 4.65 -8.05404 8
      vertex 6.22291 -6.91125 2
    endloop
  endfacet
  facet normal 0.743145 -0.66913 0
    outer loop
      vertex 6.22291 -6.91125 8
      vertex 6.22291 -6.91125 2
      vertex 7.52386 -5.4664 2
    endloop
  endfacet
  facet normal 0.743145 -0.66913 0
    outer loop
      vertex 7.52386 -5.4664 8
      vertex 6.22291 -6.91125 8
      vertex 7.52386 -5.4664 2
    endloop
  endfacet
  facet normal 0.866025 -0.5 0
    outer loop
      vertex 7.52386 -5.4664 8
      vertex 7.52386 -5.4664 2
      vertex 8.49597 -3.78265 2
    endloop
  endfacet
  facet normal 0.866025 -0.5 0
    outer loop
      vertex 8.49597 -3.78265 8
      vertex 7.52386 -5.4664 8
      vertex 8.49597 -3.78265 2
    endloop
  endfacet
  facet normal 0.951057 -0.309017 0
    outer loop
      vertex 8.49597 -3.78265 8
      vertex 8.49597 -3.78265 2
      vertex 9.09677 -1.93358 2
    endloop
  endfacet
  facet normal 0.951057 -0.309017 0
    outer loop
      vertex 9.09677 -1.93358 8
      vertex 8.49597 -3.78265 8
      vertex 9.09677 -1.93358 2
    endloop
  endfacet
  facet normal 0.994522 -0.104528 0
    outer loop
      vertex 9.09677 -1.93358 8
      vertex 9.09677 -1.93358 2
      vertex 9.3 0 2
    endloop
  endfacet
  facet normal 0.994522 -0.104528 0
    outer loop
      vertex 9.3 0 8
      vertex 9.09677 -1.93358 8
      vertex 9.3 0 2
    endloop
  endfacet
  facet normal 0.994522 0.104528 0
    outer loop
      vertex 9.3 0 2
      vertex 9.09677 1.93358 2
      vertex 9.09677 1.93358 8
    endloop
  endfacet
  facet normal 0.994522 0.104528 -0
    outer loop
      vertex 9.3 0 8
      vertex 9.3 0 2
      vertex 9.09677 1.93358 8
    endloop
  endfacet
  facet normal 0.951057 0.309017 0
    outer loop
      vertex 9.09677 1.93358 2
      vertex 8.49597 3.78265 2
      vertex 8.49597 3.78265 8
    endloop
  endfacet
  facet normal 0.951057 0.309017 -0
    outer loop
      vertex 9.09677 1.93358 8
      vertex 9.09677 1.93358 2
      vertex 8.49597 3.78265 8
    endloop
  endfacet
  facet normal 0.866025 0.5 0
    outer loop
      vertex 8.49597 3.78265 2
      vertex 7.52386 5.4664 2
      vertex 7.52386 5.4664 8
    endloop
  endfacet
  facet normal 0.866025 0.5 -0
    outer loop
      vertex 8.49597 3.78265 8
      vertex 8.49597 3.78265 2
      vertex 7.52386 5.4664 8
    endloop
  endfacet
  facet normal 0.743145 0.66913 0
    outer loop
      vertex 7.52386 5.4664 2
      vertex 6.22291 6.91125 2
      vertex 6.22291 6.91125 8
    endloop
  endfacet
  facet normal 0.743145 0.66913 -0
    outer loop
      vertex 7.52386 5.4664 8
      vertex 7.52386 5.4664 2
      vertex 6.22291 6.91125 8
    endloop
  endfacet
  facet normal 0.587785 0.809017 0
    outer loop
      vertex 4.65 8.05404 2
      vertex 4.65 8.05404 8
      vertex 6.22291 6.91125 2
    endloop
  endfacet
  facet normal 0.587785 0.809017 0
    outer loop
      vertex 6.22291 6.91125 2
      vertex 4.65 8.05404 8
      vertex 6.22291 6.91125 8
    endloop
  endfacet
  facet normal 0.406737 0.913545 0
    outer loop
      vertex 2.87386 8.84483 2
      vertex 2.87386 8.84483 8
      vertex 4.65 8.05404 2
    endloop
  endfacet
  facet normal 0.406737 0.913545 0
    outer loop
      vertex 4.65 8.05404 2
      vertex 2.87386 8.84483 8
      vertex 4.65 8.05404 8
    endloop
  endfacet
  facet normal 0.207912 0.978148 0
    outer loop
      vertex 0.972115 9.24905 2
      vertex 0.972115 9.24905 8
      vertex 2.87386 8.84483 2
    endloop
  endfacet
  facet normal 0.207912 0.978148 0
    outer loop
      vertex 2.87386 8.84483 2
      vertex 0.972115 9.24905 8
      vertex 2.87386 8.84483 8
    endloop
  endfacet
  facet normal 0 1 0
    outer loop
      vertex -0.972115 9.24905 2
      vertex -0.972115 9.24905 8
      vertex 0.972115 9.24905 2
    endloop
  endfacet
  facet normal 0 1 0
    outer loop
      vertex 0.972115 9.24905 2
      vertex -0.972115 9.24905 8
      vertex 0.972115 9.24905 8
    endloop
  endfacet
  facet normal -0.207912 0.978148 0
    outer loop
      vertex -2.87386 8.84483 2
      vertex -2.87386 8.84483 8
      vertex -0.972115 9.24905 2
    endloop
  endfacet
  facet normal -0.207912 0.978148 0
    outer loop
      vertex -0.972115 9.24905 2
      vertex -2.87386 8.84483 8
      vertex -0.972115 9.24905 8
    endloop
  endfacet
  facet normal -0.406737 0.913545 0
    outer loop
      vertex -4.65 8.05404 2
      vertex -4.65 8.05404 8
      vertex -2.87386 8.84483 2
    endloop
  endfacet
  facet normal -0.406737 0.913545 0
    outer loop
      vertex -2.87386 8.84483 2
      vertex -4.65 8.05404 8
      vertex -2.87386 8.84483 8
    endloop
  endfacet
  facet normal -0.587785 0.809017 0
    outer loop
      vertex -6.22291 6.91125 2
      vertex -6.22291 6.91125 8
      vertex -4.65 8.05404 2
    endloop
  endfacet
  facet normal -0.587785 0.809017 0
    outer loop
      vertex -4.65 8.05404 2
      vertex -6.22291 6.91125 8
      vertex -4.65 8.05404 8
    endloop
  endfacet
  facet normal -0.743145 0.66913 0
    outer loop
      vertex -7.52386 5.4664 2
      vertex -7.52386 5.4664 8
      vertex -6.22291 6.91125 2
    endloop
  endfacet
  facet normal -0.743145 0.66913 0
    outer loop
      vertex -6.22291 6.91125 2
      vertex -7.52386 5.4664 8
      vertex -6.22291 6.91125 8
    endloop
  endfacet
  facet normal -0.866025 0.5 0
    outer loop
      vertex -8.49597 3.78265 2
      vertex -8.49597 3.78265 8
      vertex -7.52386 5.4664 2
    endloop
  endfacet
  facet normal -0.866025 0.5 0
    outer loop
      vertex -7.52386 5.4664 2
      vertex -8.49597 3.78265 8
      vertex -7.52386 5.4664 8
    endloop
  endfacet
  facet normal -0.951057 0.309017 0
    outer loop
      vertex -9.09677 1.93358 2
      vertex -9.09677 1.93358 8
      vertex -8.49597 3.78265 2
    endloop
  endfacet
  facet normal -0.951057 0.309017 0
    outer loop
      vertex -8.49597 3.78265 2
      vertex -9.09677 1.93358 8
      vertex -8.49597 3.78265 8
    endloop
  endfacet
  facet normal -0.994522 0.104528 0
    outer loop
      vertex -9.3 0 2
      vertex -9.3 0 8
      vertex -9.09677 1.93358 2
    endloop
  endfacet
  facet normal -0.994522 0.104528 0
    outer loop
      vertex -9.09677 1.93358 2
      vertex -9.3 0 8
      vertex -9.09677 1.93358 8
    endloop
  endfacet
  facet normal 0.951056 0.309017 0
    outer loop
      vertex -8.11862 -1.72567 11.25
      vertex -7.58243 -3.37591 11.25
      vertex -7.58243 -3.37591 2.4
    endloop
  endfacet
  facet normal 0.951056 0.309017 0
    outer loop
      vertex -8.11862 -1.72567 2.4
      vertex -8.11862 -1.72567 11.25
      vertex -7.58243 -3.37591 2.4
    endloop
  endfacet
  facet normal 0.994522 0.104529 0
    outer loop
      vertex -8.3 0 11.25
      vertex -8.11862 -1.72567 11.25
      vertex -8.11862 -1.72567 2.4
    endloop
  endfacet
  facet normal 0.994522 0.104529 0
    outer loop
      vertex -8.3 0 2.4
      vertex -8.3 0 11.25
      vertex -8.11862 -1.72567 2.4
    endloop
  endfacet
  facet normal 0.994522 -0.104529 0
    outer loop
      vertex -8.11862 1.72567 2.4
      vertex -8.11862 1.72567 11.25
      vertex -8.3 0 11.25
    endloop
  endfacet
  facet normal 0.994522 -0.104529 0
    outer loop
      vertex -8.3 0 2.4
      vertex -8.11862 1.72567 2.4
      vertex -8.3 0 11.25
    endloop
  endfacet
  facet normal 0.951056 -0.309017 0
    outer loop
      vertex -7.58243 3.37591 2.4
      vertex -7.58243 3.37591 11.25
      vertex -8.11862 1.72567 11.25
    endloop
  endfacet
  facet normal 0.951056 -0.309017 0
    outer loop
      vertex -8.11862 1.72567 2.4
      vertex -7.58243 3.37591 2.4
      vertex -8.11862 1.72567 11.25
    endloop
  endfacet
  facet normal 0.866026 -0.5 0
    outer loop
      vertex -6.71484 4.87862 2.4
      vertex -6.71484 4.87862 11.25
      vertex -7.58243 3.37591 11.25
    endloop
  endfacet
  facet normal 0.866026 -0.5 0
    outer loop
      vertex -7.58243 3.37591 2.4
      vertex -6.71484 4.87862 2.4
      vertex -7.58243 3.37591 11.25
    endloop
  endfacet
  facet normal 0.743145 -0.669131 0
    outer loop
      vertex -5.55378 6.1681 2.4
      vertex -5.55378 6.1681 11.25
      vertex -6.71484 4.87862 11.25
    endloop
  endfacet
  facet normal 0.743145 -0.669131 0
    outer loop
      vertex -6.71484 4.87862 2.4
      vertex -5.55378 6.1681 2.4
      vertex -6.71484 4.87862 11.25
    endloop
  endfacet
  facet normal 0.587785 -0.809017 0
    outer loop
      vertex -4.15 7.18801 2.4
      vertex -4.15 7.18801 11.25
      vertex -5.55378 6.1681 11.25
    endloop
  endfacet
  facet normal 0.587785 -0.809017 0
    outer loop
      vertex -5.55378 6.1681 2.4
      vertex -4.15 7.18801 2.4
      vertex -5.55378 6.1681 11.25
    endloop
  endfacet
  facet normal 0.406737 -0.913546 0
    outer loop
      vertex -2.56484 7.89377 2.4
      vertex -2.56484 7.89377 11.25
      vertex -4.15 7.18801 11.25
    endloop
  endfacet
  facet normal 0.406737 -0.913546 0
    outer loop
      vertex -4.15 7.18801 2.4
      vertex -2.56484 7.89377 2.4
      vertex -4.15 7.18801 11.25
    endloop
  endfacet
  facet normal 0.207912 -0.978148 0
    outer loop
      vertex -0.867586 8.25453 2.4
      vertex -0.867586 8.25453 11.25
      vertex -2.56484 7.89377 11.25
    endloop
  endfacet
  facet normal 0.207912 -0.978148 0
    outer loop
      vertex -2.56484 7.89377 2.4
      vertex -0.867586 8.25453 2.4
      vertex -2.56484 7.89377 11.25
    endloop
  endfacet
  facet normal 0 -1 0
    outer loop
      vertex 0.867586 8.25453 2.4
      vertex 0.867586 8.25453 11.25
      vertex -0.867586 8.25453 11.25
    endloop
  endfacet
  facet normal -0 -1 -0
    outer loop
      vertex -0.867586 8.25453 2.4
      vertex 0.867586 8.25453 2.4
      vertex -0.867586 8.25453 11.25
    endloop
  endfacet
  facet normal -0.207912 -0.978148 -0
    outer loop
      vertex 2.56484 7.89377 2.4
      vertex 2.56484 7.89377 11.25
      vertex 0.867586 8.25453 11.25
    endloop
  endfacet
  facet normal -0.207912 -0.978148 -0
    outer loop
      vertex 0.867586 8.25453 2.4
      vertex 2.56484 7.89377 2.4
      vertex 0.867586 8.25453 11.25
    endloop
  endfacet
  facet normal -0.406737 -0.913546 -0
    outer loop
      vertex 4.15 7.18801 2.4
      vertex 4.15 7.18801 11.25
      vertex 2.56484 7.89377 11.25
    endloop
  endfacet
  facet normal -0.406737 -0.913546 -0
    outer loop
      vertex 2.56484 7.89377 2.4
      vertex 4.15 7.18801 2.4
      vertex 2.56484 7.89377 11.25
    endloop
  endfacet
  facet normal -0.587785 -0.809017 -0
    outer loop
      vertex 5.55378 6.1681 2.4
      vertex 5.55378 6.1681 11.25
      vertex 4.15 7.18801 11.25
    endloop
  endfacet
  facet normal -0.587785 -0.809017 -0
    outer loop
      vertex 4.15 7.18801 2.4
      vertex 5.55378 6.1681 2.4
      vertex 4.15 7.18801 11.25
    endloop
  endfacet
  facet normal -0.743145 -0.669131 0
    outer loop
      vertex 6.71484 4.87862 11.25
      vertex 5.55378 6.1681 11.25
      vertex 6.71484 4.87862 2.4
    endloop
  endfacet
  facet normal -0.743145 -0.669131 0
    outer loop
      vertex 6.71484 4.87862 2.4
      vertex 5.55378 6.1681 11.25
      vertex 5.55378 6.1681 2.4
    endloop
  endfacet
  facet normal -0.866026 -0.5 0
    outer loop
      vertex 7.58243 3.37591 11.25
      vertex 6.71484 4.87862 11.25
      vertex 7.58243 3.37591 2.4
    endloop
  endfacet
  facet normal -0.866026 -0.5 0
    outer loop
      vertex 7.58243 3.37591 2.4
      vertex 6.71484 4.87862 11.25
      vertex 6.71484 4.87862 2.4
    endloop
  endfacet
  facet normal -0.951056 -0.309017 0
    outer loop
      vertex 8.11862 1.72567 11.25
      vertex 7.58243 3.37591 11.25
      vertex 8.11862 1.72567 2.4
    endloop
  endfacet
  facet normal -0.951056 -0.309017 0
    outer loop
      vertex 8.11862 1.72567 2.4
      vertex 7.58243 3.37591 11.25
      vertex 7.58243 3.37591 2.4
    endloop
  endfacet
  facet normal -0.994522 -0.104529 0
    outer loop
      vertex 8.3 0 11.25
      vertex 8.11862 1.72567 11.25
      vertex 8.3 0 2.4
    endloop
  endfacet
  facet normal -0.994522 -0.104529 0
    outer loop
      vertex 8.3 0 2.4
      vertex 8.11862 1.72567 11.25
      vertex 8.11862 1.72567 2.4
    endloop
  endfacet
  facet normal -0.994522 0.104529 0
    outer loop
      vertex 8.3 0 11.25
      vertex 8.3 0 2.4
      vertex 8.11862 -1.72567 11.25
    endloop
  endfacet
  facet normal -0.994522 0.104529 0
    outer loop
      vertex 8.11862 -1.72567 11.25
      vertex 8.3 0 2.4
      vertex 8.11862 -1.72567 2.4
    endloop
  endfacet
  facet normal -0.951056 0.309017 0
    outer loop
      vertex 8.11862 -1.72567 11.25
      vertex 8.11862 -1.72567 2.4
      vertex 7.58243 -3.37591 11.25
    endloop
  endfacet
  facet normal -0.951056 0.309017 0
    outer loop
      vertex 7.58243 -3.37591 11.25
      vertex 8.11862 -1.72567 2.4
      vertex 7.58243 -3.37591 2.4
    endloop
  endfacet
  facet normal -0.866026 0.5 0
    outer loop
      vertex 7.58243 -3.37591 11.25
      vertex 7.58243 -3.37591 2.4
      vertex 6.71484 -4.87862 11.25
    endloop
  endfacet
  facet normal -0.866026 0.5 0
    outer loop
      vertex 6.71484 -4.87862 11.25
      vertex 7.58243 -3.37591 2.4
      vertex 6.71484 -4.87862 2.4
    endloop
  endfacet
  facet normal -0.743145 0.669131 0
    outer loop
      vertex 6.71484 -4.87862 11.25
      vertex 6.71484 -4.87862 2.4
      vertex 5.55378 -6.1681 11.25
    endloop
  endfacet
  facet normal -0.743145 0.669131 0
    outer loop
      vertex 5.55378 -6.1681 11.25
      vertex 6.71484 -4.87862 2.4
      vertex 5.55378 -6.1681 2.4
    endloop
  endfacet
  facet normal -0.587785 0.809017 0
    outer loop
      vertex 5.55378 -6.1681 11.25
      vertex 5.55378 -6.1681 2.4
      vertex 4.15 -7.18801 11.25
    endloop
  endfacet
  facet normal -0.587785 0.809017 0
    outer loop
      vertex 4.15 -7.18801 11.25
      vertex 5.55378 -6.1681 2.4
      vertex 4.15 -7.18801 2.4
    endloop
  endfacet
  facet normal -0.406737 0.913546 0
    outer loop
      vertex 4.15 -7.18801 11.25
      vertex 4.15 -7.18801 2.4
      vertex 2.56484 -7.89377 11.25
    endloop
  endfacet
  facet normal -0.406737 0.913546 0
    outer loop
      vertex 2.56484 -7.89377 11.25
      vertex 4.15 -7.18801 2.4
      vertex 2.56484 -7.89377 2.4
    endloop
  endfacet
  facet normal -0.207912 0.978148 0
    outer loop
      vertex 2.56484 -7.89377 11.25
      vertex 2.56484 -7.89377 2.4
      vertex 0.867586 -8.25453 11.25
    endloop
  endfacet
  facet normal -0.207912 0.978148 0
    outer loop
      vertex 0.867586 -8.25453 11.25
      vertex 2.56484 -7.89377 2.4
      vertex 0.867586 -8.25453 2.4
    endloop
  endfacet
  facet normal 0 1 0
    outer loop
      vertex 0.867586 -8.25453 11.25
      vertex 0.867586 -8.25453 2.4
      vertex -0.867586 -8.25453 11.25
    endloop
  endfacet
  facet normal 0 1 -0
    outer loop
      vertex -0.867586 -8.25453 11.25
      vertex 0.867586 -8.25453 2.4
      vertex -0.867586 -8.25453 2.4
    endloop
  endfacet
  facet normal 0.207912 0.978148 -0
    outer loop
      vertex -0.867586 -8.25453 11.25
      vertex -0.867586 -8.25453 2.4
      vertex -2.56484 -7.89377 11.25
    endloop
  endfacet
  facet normal 0.207912 0.978148 -0
    outer loop
      vertex -2.56484 -7.89377 11.25
      vertex -0.867586 -8.25453 2.4
      vertex -2.56484 -7.89377 2.4
    endloop
  endfacet
  facet normal 0.406737 0.913546 -0
    outer loop
      vertex -2.56484 -7.89377 11.25
      vertex -2.56484 -7.89377 2.4
      vertex -4.15 -7.18801 11.25
    endloop
  endfacet
  facet normal 0.406737 0.913546 -0
    outer loop
      vertex -4.15 -7.18801 11.25
      vertex -2.56484 -7.89377 2.4
      vertex -4.15 -7.18801 2.4
    endloop
  endfacet
  facet normal 0.587785 0.809017 -0
    outer loop
      vertex -4.15 -7.18801 11.25
      vertex -4.15 -7.18801 2.4
      vertex -5.55378 -6.1681 11.25
    endloop
  endfacet
  facet normal 0.587785 0.809017 -0
    outer loop
      vertex -5.55378 -6.1681 11.25
      vertex -4.15 -7.18801 2.4
      vertex -5.55378 -6.1681 2.4
    endloop
  endfacet
  facet normal 0.743145 0.669131 0
    outer loop
      vertex -6.71484 -4.87862 11.25
      vertex -5.55378 -6.1681 11.25
      vertex -5.55378 -6.1681 2.4
    endloop
  endfacet
  facet normal 0.743145 0.669131 0
    outer loop
      vertex -6.71484 -4.87862 2.4
      vertex -6.71484 -4.87862 11.25
      vertex -5.55378 -6.1681 2.4
    endloop
  endfacet
  facet normal 0.866026 0.5 0
    outer loop
      vertex -7.58243 -3.37591 11.25
      vertex -6.71484 -4.87862 11.25
      vertex -6.71484 -4.87862 2.4
    endloop
  endfacet
  facet normal 0.866026 0.5 0
    outer loop
      vertex -7.58243 -3.37591 2.4
      vertex -7.58243 -3.37591 11.25
      vertex -6.71484 -4.87862 2.4
    endloop
  endfacet
  facet normal -0.44672 0.0469521 -0.893441
    outer loop
      vertex -9.3 0 8
      vertex -11.8 0 9.25
      vertex -11.5421 2.45336 9.25
    endloop
  endfacet
  facet normal -0.44672 -0.0469521 -0.893441
    outer loop
      vertex -9.09677 -1.93358 8
      vertex -11.8 0 9.25
      vertex -9.3 0 8
    endloop
  endfacet
  facet normal -0.44672 0.0469521 -0.893441
    outer loop
      vertex -9.3 0 8
      vertex -11.5421 2.45336 9.25
      vertex -9.09677 1.93358 8
    endloop
  endfacet
  facet normal -0.44672 -0.0469521 -0.893441
    outer loop
      vertex -11.5421 -2.45336 9.25
      vertex -11.8 0 9.25
      vertex -9.09677 -1.93358 8
    endloop
  endfacet
  facet normal -0.427197 -0.138805 -0.893441
    outer loop
      vertex -8.49597 -3.78265 8
      vertex -11.5421 -2.45336 9.25
      vertex -9.09677 -1.93358 8
    endloop
  endfacet
  facet normal -0.427197 -0.138805 -0.893441
    outer loop
      vertex -10.7798 -4.79949 9.25
      vertex -11.5421 -2.45336 9.25
      vertex -8.49597 -3.78265 8
    endloop
  endfacet
  facet normal -0.389002 -0.224591 -0.893441
    outer loop
      vertex -7.52386 -5.4664 8
      vertex -10.7798 -4.79949 9.25
      vertex -8.49597 -3.78265 8
    endloop
  endfacet
  facet normal -0.389002 -0.22459 -0.893441
    outer loop
      vertex -9.5464 -6.93587 9.25
      vertex -10.7798 -4.79949 9.25
      vertex -7.52386 -5.4664 8
    endloop
  endfacet
  facet normal -0.333807 -0.300561 -0.893441
    outer loop
      vertex -6.22291 -6.91125 8
      vertex -9.5464 -6.93587 9.25
      vertex -7.52386 -5.4664 8
    endloop
  endfacet
  facet normal -0.333807 -0.300561 -0.893441
    outer loop
      vertex -7.89574 -8.76911 9.25
      vertex -9.5464 -6.93587 9.25
      vertex -6.22291 -6.91125 8
    endloop
  endfacet
  facet normal -0.264022 -0.363395 -0.893441
    outer loop
      vertex -4.65 -8.05404 8
      vertex -7.89574 -8.76911 9.25
      vertex -6.22291 -6.91125 8
    endloop
  endfacet
  facet normal -0.264022 -0.363395 -0.893441
    outer loop
      vertex -5.9 -10.2191 9.25
      vertex -7.89574 -8.76911 9.25
      vertex -4.65 -8.05404 8
    endloop
  endfacet
  facet normal -0.182698 -0.410347 -0.893441
    outer loop
      vertex -2.87386 -8.84483 8
      vertex -5.9 -10.2191 9.25
      vertex -4.65 -8.05404 8
    endloop
  endfacet
  facet normal -0.182698 -0.410347 -0.893441
    outer loop
      vertex -3.6464 -11.2225 9.25
      vertex -5.9 -10.2191 9.25
      vertex -2.87386 -8.84483 8
    endloop
  endfacet
  facet normal -0.09339 -0.439365 -0.893441
    outer loop
      vertex -0.972115 -9.24905 8
      vertex -3.6464 -11.2225 9.25
      vertex -2.87386 -8.84483 8
    endloop
  endfacet
  facet normal -0.0933899 -0.439365 -0.893441
    outer loop
      vertex -1.23344 -11.7354 9.25
      vertex -3.6464 -11.2225 9.25
      vertex -0.972115 -9.24905 8
    endloop
  endfacet
  facet normal -0 -0.449181 -0.893441
    outer loop
      vertex -1.23344 -11.7354 9.25
      vertex -0.972115 -9.24905 8
      vertex 1.23344 -11.7354 9.25
    endloop
  endfacet
  facet normal 0 -0.449181 -0.893441
    outer loop
      vertex 1.23344 -11.7354 9.25
      vertex -0.972115 -9.24905 8
      vertex 0.972115 -9.24905 8
    endloop
  endfacet
  facet normal 0.09339 -0.439365 -0.893441
    outer loop
      vertex 1.23344 -11.7354 9.25
      vertex 0.972115 -9.24905 8
      vertex 2.87386 -8.84483 8
    endloop
  endfacet
  facet normal 0.0933899 -0.439365 -0.893441
    outer loop
      vertex 3.6464 -11.2225 9.25
      vertex 1.23344 -11.7354 9.25
      vertex 2.87386 -8.84483 8
    endloop
  endfacet
  facet normal 0.182699 -0.410347 -0.893441
    outer loop
      vertex 3.6464 -11.2225 9.25
      vertex 2.87386 -8.84483 8
      vertex 4.65 -8.05404 8
    endloop
  endfacet
  facet normal 0.182698 -0.410347 -0.893441
    outer loop
      vertex 5.9 -10.2191 9.25
      vertex 3.6464 -11.2225 9.25
      vertex 4.65 -8.05404 8
    endloop
  endfacet
  facet normal 0.264022 -0.363395 -0.893441
    outer loop
      vertex 5.9 -10.2191 9.25
      vertex 4.65 -8.05404 8
      vertex 6.22291 -6.91125 8
    endloop
  endfacet
  facet normal 0.264022 -0.363395 -0.893441
    outer loop
      vertex 7.89574 -8.76911 9.25
      vertex 5.9 -10.2191 9.25
      vertex 6.22291 -6.91125 8
    endloop
  endfacet
  facet normal 0.333807 -0.300561 -0.893441
    outer loop
      vertex 7.89574 -8.76911 9.25
      vertex 6.22291 -6.91125 8
      vertex 7.52386 -5.4664 8
    endloop
  endfacet
  facet normal 0.333806 -0.300561 -0.893441
    outer loop
      vertex 7.89574 -8.76911 9.25
      vertex 7.52386 -5.4664 8
      vertex 9.5464 -6.93587 9.25
    endloop
  endfacet
  facet normal 0.389002 -0.224591 -0.893441
    outer loop
      vertex 9.5464 -6.93587 9.25
      vertex 7.52386 -5.4664 8
      vertex 8.49597 -3.78265 8
    endloop
  endfacet
  facet normal 0.389002 -0.22459 -0.893441
    outer loop
      vertex 9.5464 -6.93587 9.25
      vertex 8.49597 -3.78265 8
      vertex 10.7798 -4.79949 9.25
    endloop
  endfacet
  facet normal 0.427197 -0.138805 -0.893441
    outer loop
      vertex 10.7798 -4.79949 9.25
      vertex 8.49597 -3.78265 8
      vertex 9.09677 -1.93358 8
    endloop
  endfacet
  facet normal 0.427197 -0.138805 -0.893441
    outer loop
      vertex 10.7798 -4.79949 9.25
      vertex 9.09677 -1.93358 8
      vertex 11.5421 -2.45336 9.25
    endloop
  endfacet
  facet normal 0.44672 -0.0469521 -0.893441
    outer loop
      vertex 11.5421 -2.45336 9.25
      vertex 9.09677 -1.93358 8
      vertex 9.3 0 8
    endloop
  endfacet
  facet normal 0.44672 -0.0469521 -0.893441
    outer loop
      vertex 11.5421 -2.45336 9.25
      vertex 9.3 0 8
      vertex 11.8 0 9.25
    endloop
  endfacet
  facet normal 0.44672 0.0469521 -0.893441
    outer loop
      vertex 9.3 0 8
      vertex 9.09677 1.93358 8
      vertex 11.8 0 9.25
    endloop
  endfacet
  facet normal 0.427197 0.138805 -0.893441
    outer loop
      vertex 9.09677 1.93358 8
      vertex 8.49597 3.78265 8
      vertex 11.5421 2.45336 9.25
    endloop
  endfacet
  facet normal 0.44672 0.0469521 -0.893441
    outer loop
      vertex 11.8 0 9.25
      vertex 9.09677 1.93358 8
      vertex 11.5421 2.45336 9.25
    endloop
  endfacet
  facet normal 0.389002 0.224591 -0.893441
    outer loop
      vertex 8.49597 3.78265 8
      vertex 7.52386 5.4664 8
      vertex 10.7798 4.79949 9.25
    endloop
  endfacet
  facet normal 0.427197 0.138805 -0.893441
    outer loop
      vertex 11.5421 2.45336 9.25
      vertex 8.49597 3.78265 8
      vertex 10.7798 4.79949 9.25
    endloop
  endfacet
  facet normal 0.333807 0.300561 -0.893441
    outer loop
      vertex 7.52386 5.4664 8
      vertex 6.22291 6.91125 8
      vertex 9.5464 6.93587 9.25
    endloop
  endfacet
  facet normal 0.389002 0.22459 -0.893441
    outer loop
      vertex 10.7798 4.79949 9.25
      vertex 7.52386 5.4664 8
      vertex 9.5464 6.93587 9.25
    endloop
  endfacet
  facet normal 0.264022 0.363395 -0.893441
    outer loop
      vertex 6.22291 6.91125 8
      vertex 4.65 8.05404 8
      vertex 7.89574 8.76911 9.25
    endloop
  endfacet
  facet normal 0.333807 0.300561 -0.893441
    outer loop
      vertex 9.5464 6.93587 9.25
      vertex 6.22291 6.91125 8
      vertex 7.89574 8.76911 9.25
    endloop
  endfacet
  facet normal 0.182698 0.410347 -0.893441
    outer loop
      vertex 4.65 8.05404 8
      vertex 2.87386 8.84483 8
      vertex 5.9 10.2191 9.25
    endloop
  endfacet
  facet normal 0.264022 0.363395 -0.893441
    outer loop
      vertex 7.89574 8.76911 9.25
      vertex 4.65 8.05404 8
      vertex 5.9 10.2191 9.25
    endloop
  endfacet
  facet normal 0.09339 0.439365 -0.893441
    outer loop
      vertex 2.87386 8.84483 8
      vertex 0.972115 9.24905 8
      vertex 3.6464 11.2225 9.25
    endloop
  endfacet
  facet normal 0.182698 0.410347 -0.893441
    outer loop
      vertex 5.9 10.2191 9.25
      vertex 2.87386 8.84483 8
      vertex 3.6464 11.2225 9.25
    endloop
  endfacet
  facet normal 0 0.449181 -0.893441
    outer loop
      vertex -1.23344 11.7354 9.25
      vertex 1.23344 11.7354 9.25
      vertex -0.972115 9.24905 8
    endloop
  endfacet
  facet normal 0 0.449181 -0.893441
    outer loop
      vertex -0.972115 9.24905 8
      vertex 1.23344 11.7354 9.25
      vertex 0.972115 9.24905 8
    endloop
  endfacet
  facet normal 0.0933899 0.439365 -0.893441
    outer loop
      vertex 3.6464 11.2225 9.25
      vertex 0.972115 9.24905 8
      vertex 1.23344 11.7354 9.25
    endloop
  endfacet
  facet normal -0.09339 0.439365 -0.893441
    outer loop
      vertex -0.972115 9.24905 8
      vertex -2.87386 8.84483 8
      vertex -1.23344 11.7354 9.25
    endloop
  endfacet
  facet normal -0.182699 0.410347 -0.893441
    outer loop
      vertex -2.87386 8.84483 8
      vertex -4.65 8.05404 8
      vertex -3.6464 11.2225 9.25
    endloop
  endfacet
  facet normal -0.0933899 0.439365 -0.893441
    outer loop
      vertex -2.87386 8.84483 8
      vertex -3.6464 11.2225 9.25
      vertex -1.23344 11.7354 9.25
    endloop
  endfacet
  facet normal -0.264022 0.363395 -0.893441
    outer loop
      vertex -4.65 8.05404 8
      vertex -6.22291 6.91125 8
      vertex -5.9 10.2191 9.25
    endloop
  endfacet
  facet normal -0.182698 0.410347 -0.893441
    outer loop
      vertex -4.65 8.05404 8
      vertex -5.9 10.2191 9.25
      vertex -3.6464 11.2225 9.25
    endloop
  endfacet
  facet normal -0.333807 0.300561 -0.893441
    outer loop
      vertex -7.52386 5.4664 8
      vertex -7.89574 8.76911 9.25
      vertex -6.22291 6.91125 8
    endloop
  endfacet
  facet normal -0.264022 0.363395 -0.893441
    outer loop
      vertex -6.22291 6.91125 8
      vertex -7.89574 8.76911 9.25
      vertex -5.9 10.2191 9.25
    endloop
  endfacet
  facet normal -0.389002 0.224591 -0.893441
    outer loop
      vertex -8.49597 3.78265 8
      vertex -9.5464 6.93587 9.25
      vertex -7.52386 5.4664 8
    endloop
  endfacet
  facet normal -0.333806 0.300561 -0.893441
    outer loop
      vertex -7.52386 5.4664 8
      vertex -9.5464 6.93587 9.25
      vertex -7.89574 8.76911 9.25
    endloop
  endfacet
  facet normal -0.427197 0.138805 -0.893441
    outer loop
      vertex -9.09677 1.93358 8
      vertex -10.7798 4.79949 9.25
      vertex -8.49597 3.78265 8
    endloop
  endfacet
  facet normal -0.389002 0.22459 -0.893441
    outer loop
      vertex -8.49597 3.78265 8
      vertex -10.7798 4.79949 9.25
      vertex -9.5464 6.93587 9.25
    endloop
  endfacet
  facet normal -0.427197 0.138805 -0.893441
    outer loop
      vertex -9.09677 1.93358 8
      vertex -11.5421 2.45336 9.25
      vertex -10.7798 4.79949 9.25
    endloop
  endfacet
  facet normal 0 0 1
    outer loop
      vertex -11.5421 2.45336 11.25
      vertex -11.8 0 11.25
      vertex -11.5421 -2.45336 11.25
    endloop
  endfacet
  facet normal 0 0 1
    outer loop
      vertex -9.5464 -6.93587 11.25
      vertex -11.5421 2.45336 11.25
      vertex -10.7798 -4.79949 11.25
    endloop
  endfacet
  facet normal 0 0 1
    outer loop
      vertex -10.7798 -4.79949 11.25
      vertex -11.5421 2.45336 11.25
      vertex -11.5421 -2.45336 11.25
    endloop
  endfacet
  facet normal 0 0 1
    outer loop
      vertex -7.89574 -8.76911 11.25
      vertex -11.5421 2.45336 11.25
      vertex -9.5464 -6.93587 11.25
    endloop
  endfacet
  facet normal 0 0 1
    outer loop
      vertex -5.9 -10.2191 11.25
      vertex -11.5421 2.45336 11.25
      vertex -7.89574 -8.76911 11.25
    endloop
  endfacet
  facet normal 0 0 1
    outer loop
      vertex -3.6464 -11.2225 11.25
      vertex -11.5421 2.45336 11.25
      vertex -5.9 -10.2191 11.25
    endloop
  endfacet
  facet normal -0 -0 1
    outer loop
      vertex -6.71484 -4.87862 11.25
      vertex -11.5421 2.45336 11.25
      vertex -3.6464 -11.2225 11.25
    endloop
  endfacet
  facet normal 0 0 1
    outer loop
      vertex 5.55378 6.1681 11.25
      vertex 6.71484 4.87862 11.25
      vertex 9.5464 6.93587 11.25
    endloop
  endfacet
  facet normal 0 0 1
    outer loop
      vertex -2.56484 7.89377 11.25
      vertex -0.867586 8.25453 11.25
      vertex 3.6464 11.2225 11.25
    endloop
  endfacet
  facet normal 0 0 1
    outer loop
      vertex 0.867586 8.25453 11.25
      vertex 2.56484 7.89377 11.25
      vertex 5.9 10.2191 11.25
    endloop
  endfacet
  facet normal 0 -0 1
    outer loop
      vertex -1.23344 11.7354 11.25
      vertex -11.5421 2.45336 11.25
      vertex 1.23344 11.7354 11.25
    endloop
  endfacet
  facet normal 0 -0 1
    outer loop
      vertex -3.6464 11.2225 11.25
      vertex -11.5421 2.45336 11.25
      vertex -1.23344 11.7354 11.25
    endloop
  endfacet
  facet normal 0 -0 1
    outer loop
      vertex -5.9 10.2191 11.25
      vertex -11.5421 2.45336 11.25
      vertex -3.6464 11.2225 11.25
    endloop
  endfacet
  facet normal 0 -0 1
    outer loop
      vertex -7.89574 8.76911 11.25
      vertex -11.5421 2.45336 11.25
      vertex -5.9 10.2191 11.25
    endloop
  endfacet
  facet normal 0 -0 1
    outer loop
      vertex -9.5464 6.93587 11.25
      vertex -11.5421 2.45336 11.25
      vertex -7.89574 8.76911 11.25
    endloop
  endfacet
  facet normal 0 -0 1
    outer loop
      vertex -10.7798 4.79949 11.25
      vertex -11.5421 2.45336 11.25
      vertex -9.5464 6.93587 11.25
    endloop
  endfacet
  facet normal 0 -0 1
    outer loop
      vertex 6.71484 -4.87862 11.25
      vertex 5.55378 -6.1681 11.25
      vertex 9.5464 -6.93587 11.25
    endloop
  endfacet
  facet normal 0 0 1
    outer loop
      vertex 6.71484 4.87862 11.25
      vertex 7.58243 3.37591 11.25
      vertex 10.7798 4.79949 11.25
    endloop
  endfacet
  facet normal 0 0 1
    outer loop
      vertex 2.56484 7.89377 11.25
      vertex 4.15 7.18801 11.25
      vertex 7.89574 8.76911 11.25
    endloop
  endfacet
  facet normal 0 0 1
    outer loop
      vertex 1.23344 11.7354 11.25
      vertex -11.5421 2.45336 11.25
      vertex -5.55378 6.1681 11.25
    endloop
  endfacet
  facet normal 0 -0 1
    outer loop
      vertex 1.23344 11.7354 11.25
      vertex -4.15 7.18801 11.25
      vertex 3.6464 11.2225 11.25
    endloop
  endfacet
  facet normal 0 0 1
    outer loop
      vertex 1.23344 11.7354 11.25
      vertex -5.55378 6.1681 11.25
      vertex -4.15 7.18801 11.25
    endloop
  endfacet
  facet normal 0 0 1
    outer loop
      vertex -4.15 7.18801 11.25
      vertex -2.56484 7.89377 11.25
      vertex 3.6464 11.2225 11.25
    endloop
  endfacet
  facet normal 0 -0 1
    outer loop
      vertex 3.6464 11.2225 11.25
      vertex -0.867586 8.25453 11.25
      vertex 5.9 10.2191 11.25
    endloop
  endfacet
  facet normal 0 0 1
    outer loop
      vertex -0.867586 8.25453 11.25
      vertex 0.867586 8.25453 11.25
      vertex 5.9 10.2191 11.25
    endloop
  endfacet
  facet normal 0 -0 1
    outer loop
      vertex 5.9 10.2191 11.25
      vertex 2.56484 7.89377 11.25
      vertex 7.89574 8.76911 11.25
    endloop
  endfacet
  facet normal -0 0 1
    outer loop
      vertex -6.71484 4.87862 11.25
      vertex -5.55378 6.1681 11.25
      vertex -11.5421 2.45336 11.25
    endloop
  endfacet
  facet normal 0 -0 1
    outer loop
      vertex 7.89574 8.76911 11.25
      vertex 4.15 7.18801 11.25
      vertex 9.5464 6.93587 11.25
    endloop
  endfacet
  facet normal 0 0 1
    outer loop
      vertex 4.15 7.18801 11.25
      vertex 5.55378 6.1681 11.25
      vertex 9.5464 6.93587 11.25
    endloop
  endfacet
  facet normal 0 -0 1
    outer loop
      vertex 9.5464 6.93587 11.25
      vertex 6.71484 4.87862 11.25
      vertex 10.7798 4.79949 11.25
    endloop
  endfacet
  facet normal 0 -0 1
    outer loop
      vertex 4.15 -7.18801 11.25
      vertex 2.56484 -7.89377 11.25
      vertex 5.9 -10.2191 11.25
    endloop
  endfacet
  facet normal 0 -0 1
    outer loop
      vertex 10.7798 4.79949 11.25
      vertex 7.58243 3.37591 11.25
      vertex 11.5421 2.45336 11.25
    endloop
  endfacet
  facet normal -0 0 1
    outer loop
      vertex -7.58243 3.37591 11.25
      vertex -6.71484 4.87862 11.25
      vertex -11.5421 2.45336 11.25
    endloop
  endfacet
  facet normal 0 -0 1
    outer loop
      vertex 11.5421 2.45336 11.25
      vertex 8.11862 1.72567 11.25
      vertex 11.8 0 11.25
    endloop
  endfacet
  facet normal 0 0 1
    outer loop
      vertex 11.8 0 11.25
      vertex 8.3 0 11.25
      vertex 11.5421 -2.45336 11.25
    endloop
  endfacet
  facet normal 0 -0 1
    outer loop
      vertex 8.3 0 11.25
      vertex 8.11862 -1.72567 11.25
      vertex 11.5421 -2.45336 11.25
    endloop
  endfacet
  facet normal 0 0 1
    outer loop
      vertex 11.5421 -2.45336 11.25
      vertex 7.58243 -3.37591 11.25
      vertex 10.7798 -4.79949 11.25
    endloop
  endfacet
  facet normal 0 0 1
    outer loop
      vertex 10.7798 -4.79949 11.25
      vertex 6.71484 -4.87862 11.25
      vertex 9.5464 -6.93587 11.25
    endloop
  endfacet
  facet normal 0 0 1
    outer loop
      vertex 7.58243 3.37591 11.25
      vertex 8.11862 1.72567 11.25
      vertex 11.5421 2.45336 11.25
    endloop
  endfacet
  facet normal -0 0 1
    outer loop
      vertex 9.5464 -6.93587 11.25
      vertex 5.55378 -6.1681 11.25
      vertex 7.89574 -8.76911 11.25
    endloop
  endfacet
  facet normal 0 0 1
    outer loop
      vertex 8.11862 1.72567 11.25
      vertex 8.3 0 11.25
      vertex 11.8 0 11.25
    endloop
  endfacet
  facet normal -0 0 1
    outer loop
      vertex 7.89574 -8.76911 11.25
      vertex 4.15 -7.18801 11.25
      vertex 5.9 -10.2191 11.25
    endloop
  endfacet
  facet normal 0 -0 1
    outer loop
      vertex 8.11862 -1.72567 11.25
      vertex 7.58243 -3.37591 11.25
      vertex 11.5421 -2.45336 11.25
    endloop
  endfacet
  facet normal -0 0 1
    outer loop
      vertex 5.9 -10.2191 11.25
      vertex 2.56484 -7.89377 11.25
      vertex 3.6464 -11.2225 11.25
    endloop
  endfacet
  facet normal 0 -0 1
    outer loop
      vertex 2.56484 -7.89377 11.25
      vertex 0.867586 -8.25453 11.25
      vertex 3.6464 -11.2225 11.25
    endloop
  endfacet
  facet normal -0 0 1
    outer loop
      vertex 3.6464 -11.2225 11.25
      vertex -0.867586 -8.25453 11.25
      vertex 1.23344 -11.7354 11.25
    endloop
  endfacet
  facet normal 0 -0 1
    outer loop
      vertex 5.55378 -6.1681 11.25
      vertex 4.15 -7.18801 11.25
      vertex 7.89574 -8.76911 11.25
    endloop
  endfacet
  facet normal -0 0 1
    outer loop
      vertex 1.23344 -11.7354 11.25
      vertex -2.56484 -7.89377 11.25
      vertex -1.23344 -11.7354 11.25
    endloop
  endfacet
  facet normal -0 -0 1
    outer loop
      vertex -2.56484 -7.89377 11.25
      vertex -4.15 -7.18801 11.25
      vertex -1.23344 -11.7354 11.25
    endloop
  endfacet
  facet normal 0 0 1
    outer loop
      vertex -1.23344 -11.7354 11.25
      vertex -5.55378 -6.1681 11.25
      vertex -3.6464 -11.2225 11.25
    endloop
  endfacet
  facet normal -0 -0 1
    outer loop
      vertex -5.55378 -6.1681 11.25
      vertex -6.71484 -4.87862 11.25
      vertex -3.6464 -11.2225 11.25
    endloop
  endfacet
  facet normal -0 -0 1
    outer loop
      vertex -7.58243 -3.37591 11.25
      vertex -11.5421 2.45336 11.25
      vertex -6.71484 -4.87862 11.25
    endloop
  endfacet
  facet normal -0 -0 1
    outer loop
      vertex -4.15 -7.18801 11.25
      vertex -5.55378 -6.1681 11.25
      vertex -1.23344 -11.7354 11.25
    endloop
  endfacet
  facet normal 0 0 1
    outer loop
      vertex -7.58243 -3.37591 11.25
      vertex -8.11862 -1.72567 11.25
      vertex -11.5421 2.45336 11.25
    endloop
  endfacet
  facet normal 0 0 1
    outer loop
      vertex -8.11862 -1.72567 11.25
      vertex -8.3 0 11.25
      vertex -11.5421 2.45336 11.25
    endloop
  endfacet
  facet normal -0 -0 1
    outer loop
      vertex -0.867586 -8.25453 11.25
      vertex -2.56484 -7.89377 11.25
      vertex 1.23344 -11.7354 11.25
    endloop
  endfacet
  facet normal 0 -0 1
    outer loop
      vertex 0.867586 -8.25453 11.25
      vertex -0.867586 -8.25453 11.25
      vertex 3.6464 -11.2225 11.25
    endloop
  endfacet
  facet normal 0 0 1
    outer loop
      vertex -8.3 0 11.25
      vertex -8.11862 1.72567 11.25
      vertex -11.5421 2.45336 11.25
    endloop
  endfacet
  facet normal 0 -0 1
    outer loop
      vertex 7.58243 -3.37591 11.25
      vertex 6.71484 -4.87862 11.25
      vertex 10.7798 -4.79949 11.25
    endloop
  endfacet
  facet normal 0 0 1
    outer loop
      vertex -8.11862 1.72567 11.25
      vertex -7.58243 3.37591 11.25
      vertex -11.5421 2.45336 11.25
    endloop
  endfacet
  facet normal -0.994522 0.104528 0
    outer loop
      vertex -11.8 0 9.25
      vertex -11.8 0 11.25
      vertex -11.5421 2.45336 9.25
    endloop
  endfacet
  facet normal -0.994522 0.104528 0
    outer loop
      vertex -11.5421 2.45336 9.25
      vertex -11.8 0 11.25
      vertex -11.5421 2.45336 11.25
    endloop
  endfacet
  facet normal -0.951056 0.309017 0
    outer loop
      vertex -11.5421 2.45336 9.25
      vertex -11.5421 2.45336 11.25
      vertex -10.7798 4.79949 9.25
    endloop
  endfacet
  facet normal -0.951056 0.309017 0
    outer loop
      vertex -10.7798 4.79949 9.25
      vertex -11.5421 2.45336 11.25
      vertex -10.7798 4.79949 11.25
    endloop
  endfacet
  facet normal -0.994522 -0.104528 -0
    outer loop
      vertex -11.8 0 9.25
      vertex -11.5421 -2.45336 9.25
      vertex -11.8 0 11.25
    endloop
  endfacet
  facet normal -0.994522 -0.104528 0
    outer loop
      vertex -11.8 0 11.25
      vertex -11.5421 -2.45336 9.25
      vertex -11.5421 -2.45336 11.25
    endloop
  endfacet
  facet normal -0.951056 -0.309017 -0
    outer loop
      vertex -11.5421 -2.45336 9.25
      vertex -10.7798 -4.79949 9.25
      vertex -11.5421 -2.45336 11.25
    endloop
  endfacet
  facet normal -0.951056 -0.309017 0
    outer loop
      vertex -11.5421 -2.45336 11.25
      vertex -10.7798 -4.79949 9.25
      vertex -10.7798 -4.79949 11.25
    endloop
  endfacet
  facet normal -0.866026 -0.5 -0
    outer loop
      vertex -10.7798 -4.79949 9.25
      vertex -9.5464 -6.93587 9.25
      vertex -10.7798 -4.79949 11.25
    endloop
  endfacet
  facet normal -0.866026 -0.5 0
    outer loop
      vertex -10.7798 -4.79949 11.25
      vertex -9.5464 -6.93587 9.25
      vertex -9.5464 -6.93587 11.25
    endloop
  endfacet
  facet normal -0.743145 -0.669131 -0
    outer loop
      vertex -9.5464 -6.93587 9.25
      vertex -7.89574 -8.76911 9.25
      vertex -9.5464 -6.93587 11.25
    endloop
  endfacet
  facet normal -0.743145 -0.669131 0
    outer loop
      vertex -9.5464 -6.93587 11.25
      vertex -7.89574 -8.76911 9.25
      vertex -7.89574 -8.76911 11.25
    endloop
  endfacet
  facet normal -0.587785 -0.809017 0
    outer loop
      vertex -7.89574 -8.76911 11.25
      vertex -7.89574 -8.76911 9.25
      vertex -5.9 -10.2191 9.25
    endloop
  endfacet
  facet normal -0.587785 -0.809017 0
    outer loop
      vertex -5.9 -10.2191 11.25
      vertex -7.89574 -8.76911 11.25
      vertex -5.9 -10.2191 9.25
    endloop
  endfacet
  facet normal -0.406737 -0.913545 0
    outer loop
      vertex -5.9 -10.2191 11.25
      vertex -5.9 -10.2191 9.25
      vertex -3.6464 -11.2225 9.25
    endloop
  endfacet
  facet normal -0.406737 -0.913545 0
    outer loop
      vertex -3.6464 -11.2225 11.25
      vertex -5.9 -10.2191 11.25
      vertex -3.6464 -11.2225 9.25
    endloop
  endfacet
  facet normal -0.207911 -0.978148 0
    outer loop
      vertex -3.6464 -11.2225 11.25
      vertex -3.6464 -11.2225 9.25
      vertex -1.23344 -11.7354 9.25
    endloop
  endfacet
  facet normal -0.207911 -0.978148 0
    outer loop
      vertex -1.23344 -11.7354 11.25
      vertex -3.6464 -11.2225 11.25
      vertex -1.23344 -11.7354 9.25
    endloop
  endfacet
  facet normal 0 -1 0
    outer loop
      vertex -1.23344 -11.7354 11.25
      vertex -1.23344 -11.7354 9.25
      vertex 1.23344 -11.7354 9.25
    endloop
  endfacet
  facet normal 0 -1 0
    outer loop
      vertex 1.23344 -11.7354 11.25
      vertex -1.23344 -11.7354 11.25
      vertex 1.23344 -11.7354 9.25
    endloop
  endfacet
  facet normal 0.207911 -0.978148 0
    outer loop
      vertex 1.23344 -11.7354 11.25
      vertex 1.23344 -11.7354 9.25
      vertex 3.6464 -11.2225 9.25
    endloop
  endfacet
  facet normal 0.207911 -0.978148 0
    outer loop
      vertex 3.6464 -11.2225 11.25
      vertex 1.23344 -11.7354 11.25
      vertex 3.6464 -11.2225 9.25
    endloop
  endfacet
  facet normal 0.406737 -0.913545 0
    outer loop
      vertex 3.6464 -11.2225 11.25
      vertex 3.6464 -11.2225 9.25
      vertex 5.9 -10.2191 9.25
    endloop
  endfacet
  facet normal 0.406737 -0.913545 0
    outer loop
      vertex 5.9 -10.2191 11.25
      vertex 3.6464 -11.2225 11.25
      vertex 5.9 -10.2191 9.25
    endloop
  endfacet
  facet normal 0.587785 -0.809017 0
    outer loop
      vertex 5.9 -10.2191 11.25
      vertex 5.9 -10.2191 9.25
      vertex 7.89574 -8.76911 9.25
    endloop
  endfacet
  facet normal 0.587785 -0.809017 0
    outer loop
      vertex 7.89574 -8.76911 11.25
      vertex 5.9 -10.2191 11.25
      vertex 7.89574 -8.76911 9.25
    endloop
  endfacet
  facet normal 0.743145 -0.669131 0
    outer loop
      vertex 7.89574 -8.76911 11.25
      vertex 7.89574 -8.76911 9.25
      vertex 9.5464 -6.93587 9.25
    endloop
  endfacet
  facet normal 0.743145 -0.669131 0
    outer loop
      vertex 9.5464 -6.93587 11.25
      vertex 7.89574 -8.76911 11.25
      vertex 9.5464 -6.93587 9.25
    endloop
  endfacet
  facet normal 0.866026 -0.5 0
    outer loop
      vertex 9.5464 -6.93587 11.25
      vertex 9.5464 -6.93587 9.25
      vertex 10.7798 -4.79949 9.25
    endloop
  endfacet
  facet normal 0.866026 -0.5 0
    outer loop
      vertex 10.7798 -4.79949 11.25
      vertex 9.5464 -6.93587 11.25
      vertex 10.7798 -4.79949 9.25
    endloop
  endfacet
  facet normal 0.951056 -0.309017 0
    outer loop
      vertex 10.7798 -4.79949 11.25
      vertex 10.7798 -4.79949 9.25
      vertex 11.5421 -2.45336 9.25
    endloop
  endfacet
  facet normal 0.951056 -0.309017 0
    outer loop
      vertex 11.5421 -2.45336 11.25
      vertex 10.7798 -4.79949 11.25
      vertex 11.5421 -2.45336 9.25
    endloop
  endfacet
  facet normal 0.994522 -0.104528 0
    outer loop
      vertex 11.5421 -2.45336 11.25
      vertex 11.5421 -2.45336 9.25
      vertex 11.8 0 9.25
    endloop
  endfacet
  facet normal 0.994522 -0.104528 0
    outer loop
      vertex 11.8 0 11.25
      vertex 11.5421 -2.45336 11.25
      vertex 11.8 0 9.25
    endloop
  endfacet
  facet normal 0.994522 0.104528 0
    outer loop
      vertex 11.8 0 9.25
      vertex 11.5421 2.45336 9.25
      vertex 11.5421 2.45336 11.25
    endloop
  endfacet
  facet normal 0.994522 0.104528 -0
    outer loop
      vertex 11.8 0 11.25
      vertex 11.8 0 9.25
      vertex 11.5421 2.45336 11.25
    endloop
  endfacet
  facet normal 0.951056 0.309017 0
    outer loop
      vertex 11.5421 2.45336 9.25
      vertex 10.7798 4.79949 9.25
      vertex 10.7798 4.79949 11.25
    endloop
  endfacet
  facet normal 0.951056 0.309017 -0
    outer loop
      vertex 11.5421 2.45336 11.25
      vertex 11.5421 2.45336 9.25
      vertex 10.7798 4.79949 11.25
    endloop
  endfacet
  facet normal 0.866026 0.5 0
    outer loop
      vertex 10.7798 4.79949 9.25
      vertex 9.5464 6.93587 9.25
      vertex 9.5464 6.93587 11.25
    endloop
  endfacet
  facet normal 0.866026 0.5 -0
    outer loop
      vertex 10.7798 4.79949 11.25
      vertex 10.7798 4.79949 9.25
      vertex 9.5464 6.93587 11.25
    endloop
  endfacet
  facet normal 0.743145 0.669131 0
    outer loop
      vertex 9.5464 6.93587 9.25
      vertex 7.89574 8.76911 9.25
      vertex 7.89574 8.76911 11.25
    endloop
  endfacet
  facet normal 0.743145 0.669131 -0
    outer loop
      vertex 9.5464 6.93587 11.25
      vertex 9.5464 6.93587 9.25
      vertex 7.89574 8.76911 11.25
    endloop
  endfacet
  facet normal 0.587785 0.809017 0
    outer loop
      vertex 5.9 10.2191 9.25
      vertex 5.9 10.2191 11.25
      vertex 7.89574 8.76911 9.25
    endloop
  endfacet
  facet normal 0.587785 0.809017 0
    outer loop
      vertex 7.89574 8.76911 9.25
      vertex 5.9 10.2191 11.25
      vertex 7.89574 8.76911 11.25
    endloop
  endfacet
  facet normal 0.406737 0.913545 0
    outer loop
      vertex 3.6464 11.2225 9.25
      vertex 3.6464 11.2225 11.25
      vertex 5.9 10.2191 9.25
    endloop
  endfacet
  facet normal 0.406737 0.913545 0
    outer loop
      vertex 5.9 10.2191 9.25
      vertex 3.6464 11.2225 11.25
      vertex 5.9 10.2191 11.25
    endloop
  endfacet
  facet normal 0.207911 0.978148 0
    outer loop
      vertex 1.23344 11.7354 9.25
      vertex 1.23344 11.7354 11.25
      vertex 3.6464 11.2225 9.25
    endloop
  endfacet
  facet normal 0.207911 0.978148 0
    outer loop
      vertex 3.6464 11.2225 9.25
      vertex 1.23344 11.7354 11.25
      vertex 3.6464 11.2225 11.25
    endloop
  endfacet
  facet normal 0 1 0
    outer loop
      vertex -1.23344 11.7354 9.25
      vertex -1.23344 11.7354 11.25
      vertex 1.23344 11.7354 9.25
    endloop
  endfacet
  facet normal 0 1 0
    outer loop
      vertex 1.23344 11.7354 9.25
      vertex -1.23344 11.7354 11.25
      vertex 1.23344 11.7354 11.25
    endloop
  endfacet
  facet normal -0.207911 0.978148 0
    outer loop
      vertex -3.6464 11.2225 9.25
      vertex -3.6464 11.2225 11.25
      vertex -1.23344 11.7354 9.25
    endloop
  endfacet
  facet normal -0.207911 0.978148 0
    outer loop
      vertex -1.23344 11.7354 9.25
      vertex -3.6464 11.2225 11.25
      vertex -1.23344 11.7354 11.25
    endloop
  endfacet
  facet normal -0.406737 0.913545 0
    outer loop
      vertex -5.9 10.2191 9.25
      vertex -5.9 10.2191 11.25
      vertex -3.6464 11.2225 9.25
    endloop
  endfacet
  facet normal -0.406737 0.913545 0
    outer loop
      vertex -3.6464 11.2225 9.25
      vertex -5.9 10.2191 11.25
      vertex -3.6464 11.2225 11.25
    endloop
  endfacet
  facet normal -0.587785 0.809017 0
    outer loop
      vertex -7.89574 8.76911 9.25
      vertex -7.89574 8.76911 11.25
      vertex -5.9 10.2191 9.25
    endloop
  endfacet
  facet normal -0.587785 0.809017 0
    outer loop
      vertex -5.9 10.2191 9.25
      vertex -7.89574 8.76911 11.25
      vertex -5.9 10.2191 11.25
    endloop
  endfacet
  facet normal -0.743145 0.669131 0
    outer loop
      vertex -9.5464 6.93587 9.25
      vertex -9.5464 6.93587 11.25
      vertex -7.89574 8.76911 9.25
    endloop
  endfacet
  facet normal -0.743145 0.669131 0
    outer loop
      vertex -7.89574 8.76911 9.25
      vertex -9.5464 6.93587 11.25
      vertex -7.89574 8.76911 11.25
    endloop
  endfacet
  facet normal -0.866026 0.5 0
    outer loop
      vertex -10.7798 4.79949 9.25
      vertex -10.7798 4.79949 11.25
      vertex -9.5464 6.93587 9.25
    endloop
  endfacet
  facet normal -0.866026 0.5 0
    outer loop
      vertex -9.5464 6.93587 9.25
      vertex -10.7798 4.79949 11.25
      vertex -9.5464 6.93587 11.25
    endloop
  endfacet
endsolid OpenSCAD_Model
